<?xml version="1.0" encoding="utf-8"?>
<svg xmlns="http://www.w3.org/2000/svg" xmlns:xlink="http://www.w3.org/1999/xlink" width="600" height="400" viewBox="0 0 2400 1600">
<defs>
  <clipPath id="clip140">
    <rect x="0" y="0" width="2400" height="1600"/>
  </clipPath>
</defs>
<path clip-path="url(#clip140)" d="
M0 1600 L2400 1600 L2400 0 L0 0  Z
  " fill="#ffffff" fill-rule="evenodd" fill-opacity="1"/>
<defs>
  <clipPath id="clip141">
    <rect x="480" y="0" width="1681" height="1600"/>
  </clipPath>
</defs>
<path clip-path="url(#clip140)" d="
M206.667 1486.45 L1767.72 1486.45 L1767.72 123.472 L206.667 123.472  Z
  " fill="#eaeaea" fill-rule="evenodd" fill-opacity="1"/>
<defs>
  <clipPath id="clip142">
    <rect x="206" y="123" width="1562" height="1364"/>
  </clipPath>
</defs>
<polyline clip-path="url(#clip142)" style="stroke:#ffffff; stroke-width:4; stroke-opacity:1; fill:none" points="
  235.972,1486.45 235.972,123.472 
  "/>
<polyline clip-path="url(#clip142)" style="stroke:#ffffff; stroke-width:4; stroke-opacity:1; fill:none" points="
  607.864,1486.45 607.864,123.472 
  "/>
<polyline clip-path="url(#clip142)" style="stroke:#ffffff; stroke-width:4; stroke-opacity:1; fill:none" points="
  979.756,1486.45 979.756,123.472 
  "/>
<polyline clip-path="url(#clip142)" style="stroke:#ffffff; stroke-width:4; stroke-opacity:1; fill:none" points="
  1351.65,1486.45 1351.65,123.472 
  "/>
<polyline clip-path="url(#clip142)" style="stroke:#ffffff; stroke-width:4; stroke-opacity:1; fill:none" points="
  1723.54,1486.45 1723.54,123.472 
  "/>
<polyline clip-path="url(#clip142)" style="stroke:#ffffff; stroke-width:4; stroke-opacity:1; fill:none" points="
  206.667,1462.74 1767.72,1462.74 
  "/>
<polyline clip-path="url(#clip142)" style="stroke:#ffffff; stroke-width:4; stroke-opacity:1; fill:none" points="
  206.667,1235.41 1767.72,1235.41 
  "/>
<polyline clip-path="url(#clip142)" style="stroke:#ffffff; stroke-width:4; stroke-opacity:1; fill:none" points="
  206.667,1008.09 1767.72,1008.09 
  "/>
<polyline clip-path="url(#clip142)" style="stroke:#ffffff; stroke-width:4; stroke-opacity:1; fill:none" points="
  206.667,780.759 1767.72,780.759 
  "/>
<polyline clip-path="url(#clip142)" style="stroke:#ffffff; stroke-width:4; stroke-opacity:1; fill:none" points="
  206.667,553.432 1767.72,553.432 
  "/>
<polyline clip-path="url(#clip142)" style="stroke:#ffffff; stroke-width:4; stroke-opacity:1; fill:none" points="
  206.667,326.104 1767.72,326.104 
  "/>
<polyline clip-path="url(#clip142)" style="stroke:#ffffff; stroke-width:2; stroke-opacity:1; fill:none" points="
  421.918,1486.45 421.918,123.472 
  "/>
<polyline clip-path="url(#clip142)" style="stroke:#ffffff; stroke-width:2; stroke-opacity:1; fill:none" points="
  793.81,1486.45 793.81,123.472 
  "/>
<polyline clip-path="url(#clip142)" style="stroke:#ffffff; stroke-width:2; stroke-opacity:1; fill:none" points="
  1165.7,1486.45 1165.7,123.472 
  "/>
<polyline clip-path="url(#clip142)" style="stroke:#ffffff; stroke-width:2; stroke-opacity:1; fill:none" points="
  1537.59,1486.45 1537.59,123.472 
  "/>
<polyline clip-path="url(#clip142)" style="stroke:#ffffff; stroke-width:2; stroke-opacity:1; fill:none" points="
  206.667,1349.08 1767.72,1349.08 
  "/>
<polyline clip-path="url(#clip142)" style="stroke:#ffffff; stroke-width:2; stroke-opacity:1; fill:none" points="
  206.667,1121.75 1767.72,1121.75 
  "/>
<polyline clip-path="url(#clip142)" style="stroke:#ffffff; stroke-width:2; stroke-opacity:1; fill:none" points="
  206.667,894.422 1767.72,894.422 
  "/>
<polyline clip-path="url(#clip142)" style="stroke:#ffffff; stroke-width:2; stroke-opacity:1; fill:none" points="
  206.667,667.095 1767.72,667.095 
  "/>
<polyline clip-path="url(#clip142)" style="stroke:#ffffff; stroke-width:2; stroke-opacity:1; fill:none" points="
  206.667,439.768 1767.72,439.768 
  "/>
<polyline clip-path="url(#clip142)" style="stroke:#ffffff; stroke-width:2; stroke-opacity:1; fill:none" points="
  206.667,212.441 1767.72,212.441 
  "/>
<polyline clip-path="url(#clip140)" style="stroke:#ffffff; stroke-width:4; stroke-opacity:1; fill:none" points="
  206.667,1486.45 1767.72,1486.45 
  "/>
<polyline clip-path="url(#clip140)" style="stroke:#ffffff; stroke-width:4; stroke-opacity:1; fill:none" points="
  206.667,1486.45 206.667,123.472 
  "/>
<polyline clip-path="url(#clip140)" style="stroke:#333333; stroke-width:4; stroke-opacity:1; fill:none" points="
  235.972,1486.45 235.972,1502.8 
  "/>
<polyline clip-path="url(#clip140)" style="stroke:#333333; stroke-width:4; stroke-opacity:1; fill:none" points="
  607.864,1486.45 607.864,1502.8 
  "/>
<polyline clip-path="url(#clip140)" style="stroke:#333333; stroke-width:4; stroke-opacity:1; fill:none" points="
  979.756,1486.45 979.756,1502.8 
  "/>
<polyline clip-path="url(#clip140)" style="stroke:#333333; stroke-width:4; stroke-opacity:1; fill:none" points="
  1351.65,1486.45 1351.65,1502.8 
  "/>
<polyline clip-path="url(#clip140)" style="stroke:#333333; stroke-width:4; stroke-opacity:1; fill:none" points="
  1723.54,1486.45 1723.54,1502.8 
  "/>
<polyline clip-path="url(#clip140)" style="stroke:#333333; stroke-width:4; stroke-opacity:1; fill:none" points="
  421.918,1486.45 421.918,1494.63 
  "/>
<polyline clip-path="url(#clip140)" style="stroke:#333333; stroke-width:4; stroke-opacity:1; fill:none" points="
  793.81,1486.45 793.81,1494.63 
  "/>
<polyline clip-path="url(#clip140)" style="stroke:#333333; stroke-width:4; stroke-opacity:1; fill:none" points="
  1165.7,1486.45 1165.7,1494.63 
  "/>
<polyline clip-path="url(#clip140)" style="stroke:#333333; stroke-width:4; stroke-opacity:1; fill:none" points="
  1537.59,1486.45 1537.59,1494.63 
  "/>
<polyline clip-path="url(#clip140)" style="stroke:#333333; stroke-width:4; stroke-opacity:1; fill:none" points="
  206.667,1462.74 187.935,1462.74 
  "/>
<polyline clip-path="url(#clip140)" style="stroke:#333333; stroke-width:4; stroke-opacity:1; fill:none" points="
  206.667,1235.41 187.935,1235.41 
  "/>
<polyline clip-path="url(#clip140)" style="stroke:#333333; stroke-width:4; stroke-opacity:1; fill:none" points="
  206.667,1008.09 187.935,1008.09 
  "/>
<polyline clip-path="url(#clip140)" style="stroke:#333333; stroke-width:4; stroke-opacity:1; fill:none" points="
  206.667,780.759 187.935,780.759 
  "/>
<polyline clip-path="url(#clip140)" style="stroke:#333333; stroke-width:4; stroke-opacity:1; fill:none" points="
  206.667,553.432 187.935,553.432 
  "/>
<polyline clip-path="url(#clip140)" style="stroke:#333333; stroke-width:4; stroke-opacity:1; fill:none" points="
  206.667,326.104 187.935,326.104 
  "/>
<polyline clip-path="url(#clip140)" style="stroke:#333333; stroke-width:4; stroke-opacity:1; fill:none" points="
  206.667,1349.08 197.301,1349.08 
  "/>
<polyline clip-path="url(#clip140)" style="stroke:#333333; stroke-width:4; stroke-opacity:1; fill:none" points="
  206.667,1121.75 197.301,1121.75 
  "/>
<polyline clip-path="url(#clip140)" style="stroke:#333333; stroke-width:4; stroke-opacity:1; fill:none" points="
  206.667,894.422 197.301,894.422 
  "/>
<polyline clip-path="url(#clip140)" style="stroke:#333333; stroke-width:4; stroke-opacity:1; fill:none" points="
  206.667,667.095 197.301,667.095 
  "/>
<polyline clip-path="url(#clip140)" style="stroke:#333333; stroke-width:4; stroke-opacity:1; fill:none" points="
  206.667,439.768 197.301,439.768 
  "/>
<polyline clip-path="url(#clip140)" style="stroke:#333333; stroke-width:4; stroke-opacity:1; fill:none" points="
  206.667,212.441 197.301,212.441 
  "/>
<path clip-path="url(#clip140)" d="M 0 0 M235.972 1514.44 Q232.361 1514.44 230.533 1518 Q228.727 1521.55 228.727 1528.67 Q228.727 1535.78 230.533 1539.35 Q232.361 1542.89 235.972 1542.89 Q239.607 1542.89 241.412 1539.35 Q243.241 1535.78 243.241 1528.67 Q243.241 1521.55 241.412 1518 Q239.607 1514.44 235.972 1514.44 M235.972 1510.73 Q241.783 1510.73 244.838 1515.34 Q247.917 1519.92 247.917 1528.67 Q247.917 1537.4 244.838 1542.01 Q241.783 1546.59 235.972 1546.59 Q230.162 1546.59 227.084 1542.01 Q224.028 1537.4 224.028 1528.67 Q224.028 1519.92 227.084 1515.34 Q230.162 1510.73 235.972 1510.73 Z" fill="#4c4c4c" fill-rule="evenodd" fill-opacity="1" /><path clip-path="url(#clip140)" d="M 0 0 M589.508 1541.98 L605.827 1541.98 L605.827 1545.92 L583.883 1545.92 L583.883 1541.98 Q586.545 1539.23 591.128 1534.6 Q595.735 1529.95 596.915 1528.61 Q599.161 1526.08 600.04 1524.35 Q600.943 1522.59 600.943 1520.9 Q600.943 1518.14 598.999 1516.41 Q597.077 1514.67 593.975 1514.67 Q591.776 1514.67 589.323 1515.43 Q586.892 1516.2 584.114 1517.75 L584.114 1513.03 Q586.938 1511.89 589.392 1511.31 Q591.846 1510.73 593.883 1510.73 Q599.253 1510.73 602.448 1513.42 Q605.642 1516.11 605.642 1520.6 Q605.642 1522.73 604.832 1524.65 Q604.045 1526.54 601.938 1529.14 Q601.36 1529.81 598.258 1533.03 Q595.156 1536.22 589.508 1541.98 Z" fill="#4c4c4c" fill-rule="evenodd" fill-opacity="1" /><path clip-path="url(#clip140)" d="M 0 0 M610.943 1511.36 L629.299 1511.36 L629.299 1515.3 L615.225 1515.3 L615.225 1523.77 Q616.244 1523.42 617.262 1523.26 Q618.281 1523.07 619.299 1523.07 Q625.086 1523.07 628.466 1526.24 Q631.846 1529.42 631.846 1534.83 Q631.846 1540.41 628.373 1543.51 Q624.901 1546.59 618.582 1546.59 Q616.406 1546.59 614.137 1546.22 Q611.892 1545.85 609.485 1545.11 L609.485 1540.41 Q611.568 1541.54 613.79 1542.1 Q616.012 1542.66 618.489 1542.66 Q622.494 1542.66 624.832 1540.55 Q627.17 1538.44 627.17 1534.83 Q627.17 1531.22 624.832 1529.11 Q622.494 1527.01 618.489 1527.01 Q616.614 1527.01 614.739 1527.42 Q612.887 1527.84 610.943 1528.72 L610.943 1511.36 Z" fill="#4c4c4c" fill-rule="evenodd" fill-opacity="1" /><path clip-path="url(#clip140)" d="M 0 0 M956.527 1511.36 L974.883 1511.36 L974.883 1515.3 L960.809 1515.3 L960.809 1523.77 Q961.828 1523.42 962.846 1523.26 Q963.865 1523.07 964.884 1523.07 Q970.671 1523.07 974.05 1526.24 Q977.43 1529.42 977.43 1534.83 Q977.43 1540.41 973.958 1543.51 Q970.485 1546.59 964.166 1546.59 Q961.99 1546.59 959.722 1546.22 Q957.476 1545.85 955.069 1545.11 L955.069 1540.41 Q957.152 1541.54 959.374 1542.1 Q961.597 1542.66 964.073 1542.66 Q968.078 1542.66 970.416 1540.55 Q972.754 1538.44 972.754 1534.83 Q972.754 1531.22 970.416 1529.11 Q968.078 1527.01 964.073 1527.01 Q962.198 1527.01 960.323 1527.42 Q958.472 1527.84 956.527 1528.72 L956.527 1511.36 Z" fill="#4c4c4c" fill-rule="evenodd" fill-opacity="1" /><path clip-path="url(#clip140)" d="M 0 0 M992.499 1514.44 Q988.888 1514.44 987.059 1518 Q985.254 1521.55 985.254 1528.67 Q985.254 1535.78 987.059 1539.35 Q988.888 1542.89 992.499 1542.89 Q996.133 1542.89 997.939 1539.35 Q999.768 1535.78 999.768 1528.67 Q999.768 1521.55 997.939 1518 Q996.133 1514.44 992.499 1514.44 M992.499 1510.73 Q998.309 1510.73 1001.36 1515.34 Q1004.44 1519.92 1004.44 1528.67 Q1004.44 1537.4 1001.36 1542.01 Q998.309 1546.59 992.499 1546.59 Q986.689 1546.59 983.61 1542.01 Q980.555 1537.4 980.555 1528.67 Q980.555 1519.92 983.61 1515.34 Q986.689 1510.73 992.499 1510.73 Z" fill="#4c4c4c" fill-rule="evenodd" fill-opacity="1" /><path clip-path="url(#clip140)" d="M 0 0 M1327.53 1511.36 L1349.75 1511.36 L1349.75 1513.35 L1337.2 1545.92 L1332.32 1545.92 L1344.12 1515.3 L1327.53 1515.3 L1327.53 1511.36 Z" fill="#4c4c4c" fill-rule="evenodd" fill-opacity="1" /><path clip-path="url(#clip140)" d="M 0 0 M1354.87 1511.36 L1373.22 1511.36 L1373.22 1515.3 L1359.15 1515.3 L1359.15 1523.77 Q1360.17 1523.42 1361.18 1523.26 Q1362.2 1523.07 1363.22 1523.07 Q1369.01 1523.07 1372.39 1526.24 Q1375.77 1529.42 1375.77 1534.83 Q1375.77 1540.41 1372.3 1543.51 Q1368.82 1546.59 1362.5 1546.59 Q1360.33 1546.59 1358.06 1546.22 Q1355.81 1545.85 1353.41 1545.11 L1353.41 1540.41 Q1355.49 1541.54 1357.71 1542.1 Q1359.93 1542.66 1362.41 1542.66 Q1366.42 1542.66 1368.75 1540.55 Q1371.09 1538.44 1371.09 1534.83 Q1371.09 1531.22 1368.75 1529.11 Q1366.42 1527.01 1362.41 1527.01 Q1360.54 1527.01 1358.66 1527.42 Q1356.81 1527.84 1354.87 1528.72 L1354.87 1511.36 Z" fill="#4c4c4c" fill-rule="evenodd" fill-opacity="1" /><path clip-path="url(#clip140)" d="M 0 0 M1686.91 1541.98 L1694.55 1541.98 L1694.55 1515.62 L1686.24 1517.29 L1686.24 1513.03 L1694.5 1511.36 L1699.18 1511.36 L1699.18 1541.98 L1706.82 1541.98 L1706.82 1545.92 L1686.91 1545.92 L1686.91 1541.98 Z" fill="#4c4c4c" fill-rule="evenodd" fill-opacity="1" /><path clip-path="url(#clip140)" d="M 0 0 M1721.88 1514.44 Q1718.27 1514.44 1716.44 1518 Q1714.64 1521.55 1714.64 1528.67 Q1714.64 1535.78 1716.44 1539.35 Q1718.27 1542.89 1721.88 1542.89 Q1725.52 1542.89 1727.32 1539.35 Q1729.15 1535.78 1729.15 1528.67 Q1729.15 1521.55 1727.32 1518 Q1725.52 1514.44 1721.88 1514.44 M1721.88 1510.73 Q1727.69 1510.73 1730.75 1515.34 Q1733.83 1519.92 1733.83 1528.67 Q1733.83 1537.4 1730.75 1542.01 Q1727.69 1546.59 1721.88 1546.59 Q1716.07 1546.59 1713 1542.01 Q1709.94 1537.4 1709.94 1528.67 Q1709.94 1519.92 1713 1515.34 Q1716.07 1510.73 1721.88 1510.73 Z" fill="#4c4c4c" fill-rule="evenodd" fill-opacity="1" /><path clip-path="url(#clip140)" d="M 0 0 M1748.9 1514.44 Q1745.29 1514.44 1743.46 1518 Q1741.65 1521.55 1741.65 1528.67 Q1741.65 1535.78 1743.46 1539.35 Q1745.29 1542.89 1748.9 1542.89 Q1752.53 1542.89 1754.34 1539.35 Q1756.17 1535.78 1756.17 1528.67 Q1756.17 1521.55 1754.34 1518 Q1752.53 1514.44 1748.9 1514.44 M1748.9 1510.73 Q1754.71 1510.73 1757.76 1515.34 Q1760.84 1519.92 1760.84 1528.67 Q1760.84 1537.4 1757.76 1542.01 Q1754.71 1546.59 1748.9 1546.59 Q1743.09 1546.59 1740.01 1542.01 Q1736.95 1537.4 1736.95 1528.67 Q1736.95 1519.92 1740.01 1515.34 Q1743.09 1510.73 1748.9 1510.73 Z" fill="#4c4c4c" fill-rule="evenodd" fill-opacity="1" /><path clip-path="url(#clip140)" d="M 0 0 M51.2236 1463.19 L80.8994 1463.19 L80.8994 1467.13 L51.2236 1467.13 L51.2236 1463.19 Z" fill="#4c4c4c" fill-rule="evenodd" fill-opacity="1" /><path clip-path="url(#clip140)" d="M 0 0 M86.779 1476.09 L94.4178 1476.09 L94.4178 1449.72 L86.1077 1451.39 L86.1077 1447.13 L94.3715 1445.46 L99.0474 1445.46 L99.0474 1476.09 L106.686 1476.09 L106.686 1480.02 L86.779 1480.02 L86.779 1476.09 Z" fill="#4c4c4c" fill-rule="evenodd" fill-opacity="1" /><path clip-path="url(#clip140)" d="M 0 0 M111.756 1474.14 L116.64 1474.14 L116.64 1480.02 L111.756 1480.02 L111.756 1474.14 Z" fill="#4c4c4c" fill-rule="evenodd" fill-opacity="1" /><path clip-path="url(#clip140)" d="M 0 0 M131.709 1448.54 Q128.098 1448.54 126.27 1452.1 Q124.464 1455.65 124.464 1462.78 Q124.464 1469.88 126.27 1473.45 Q128.098 1476.99 131.709 1476.99 Q135.344 1476.99 137.149 1473.45 Q138.978 1469.88 138.978 1462.78 Q138.978 1455.65 137.149 1452.1 Q135.344 1448.54 131.709 1448.54 M131.709 1444.84 Q137.519 1444.84 140.575 1449.44 Q143.654 1454.03 143.654 1462.78 Q143.654 1471.5 140.575 1476.11 Q137.519 1480.69 131.709 1480.69 Q125.899 1480.69 122.82 1476.11 Q119.765 1471.5 119.765 1462.78 Q119.765 1454.03 122.82 1449.44 Q125.899 1444.84 131.709 1444.84 Z" fill="#4c4c4c" fill-rule="evenodd" fill-opacity="1" /><path clip-path="url(#clip140)" d="M 0 0 M158.723 1448.54 Q155.112 1448.54 153.283 1452.1 Q151.478 1455.65 151.478 1462.78 Q151.478 1469.88 153.283 1473.45 Q155.112 1476.99 158.723 1476.99 Q162.357 1476.99 164.163 1473.45 Q165.992 1469.88 165.992 1462.78 Q165.992 1455.65 164.163 1452.1 Q162.357 1448.54 158.723 1448.54 M158.723 1444.84 Q164.533 1444.84 167.589 1449.44 Q170.667 1454.03 170.667 1462.78 Q170.667 1471.5 167.589 1476.11 Q164.533 1480.69 158.723 1480.69 Q152.913 1480.69 149.834 1476.11 Q146.779 1471.5 146.779 1462.78 Q146.779 1454.03 149.834 1449.44 Q152.913 1444.84 158.723 1444.84 Z" fill="#4c4c4c" fill-rule="evenodd" fill-opacity="1" /><path clip-path="url(#clip140)" d="M 0 0 M51.8949 1235.86 L81.5707 1235.86 L81.5707 1239.8 L51.8949 1239.8 L51.8949 1235.86 Z" fill="#4c4c4c" fill-rule="evenodd" fill-opacity="1" /><path clip-path="url(#clip140)" d="M 0 0 M96.64 1221.21 Q93.0289 1221.21 91.2002 1224.78 Q89.3947 1228.32 89.3947 1235.45 Q89.3947 1242.55 91.2002 1246.12 Q93.0289 1249.66 96.64 1249.66 Q100.274 1249.66 102.08 1246.12 Q103.909 1242.55 103.909 1235.45 Q103.909 1228.32 102.08 1224.78 Q100.274 1221.21 96.64 1221.21 M96.64 1217.51 Q102.45 1217.51 105.506 1222.11 Q108.584 1226.7 108.584 1235.45 Q108.584 1244.17 105.506 1248.78 Q102.45 1253.36 96.64 1253.36 Q90.8299 1253.36 87.7512 1248.78 Q84.6956 1244.17 84.6956 1235.45 Q84.6956 1226.7 87.7512 1222.11 Q90.8299 1217.51 96.64 1217.51 Z" fill="#4c4c4c" fill-rule="evenodd" fill-opacity="1" /><path clip-path="url(#clip140)" d="M 0 0 M113.654 1246.81 L118.538 1246.81 L118.538 1252.69 L113.654 1252.69 L113.654 1246.81 Z" fill="#4c4c4c" fill-rule="evenodd" fill-opacity="1" /><path clip-path="url(#clip140)" d="M 0 0 M122.427 1218.13 L144.649 1218.13 L144.649 1220.12 L132.103 1252.69 L127.219 1252.69 L139.024 1222.07 L122.427 1222.07 L122.427 1218.13 Z" fill="#4c4c4c" fill-rule="evenodd" fill-opacity="1" /><path clip-path="url(#clip140)" d="M 0 0 M149.765 1218.13 L168.121 1218.13 L168.121 1222.07 L154.047 1222.07 L154.047 1230.54 Q155.066 1230.19 156.084 1230.03 Q157.103 1229.85 158.121 1229.85 Q163.908 1229.85 167.288 1233.02 Q170.667 1236.19 170.667 1241.61 Q170.667 1247.18 167.195 1250.29 Q163.723 1253.36 157.404 1253.36 Q155.228 1253.36 152.959 1252.99 Q150.714 1252.62 148.306 1251.88 L148.306 1247.18 Q150.39 1248.32 152.612 1248.87 Q154.834 1249.43 157.311 1249.43 Q161.316 1249.43 163.654 1247.32 Q165.992 1245.22 165.992 1241.61 Q165.992 1237.99 163.654 1235.89 Q161.316 1233.78 157.311 1233.78 Q155.436 1233.78 153.561 1234.2 Q151.709 1234.61 149.765 1235.49 L149.765 1218.13 Z" fill="#4c4c4c" fill-rule="evenodd" fill-opacity="1" /><path clip-path="url(#clip140)" d="M 0 0 M50.9921 1008.54 L80.6679 1008.54 L80.6679 1012.47 L50.9921 1012.47 L50.9921 1008.54 Z" fill="#4c4c4c" fill-rule="evenodd" fill-opacity="1" /><path clip-path="url(#clip140)" d="M 0 0 M95.7373 993.885 Q92.1262 993.885 90.2975 997.449 Q88.4919 1000.99 88.4919 1008.12 Q88.4919 1015.23 90.2975 1018.79 Q92.1262 1022.33 95.7373 1022.33 Q99.3715 1022.33 101.177 1018.79 Q103.006 1015.23 103.006 1008.12 Q103.006 1000.99 101.177 997.449 Q99.3715 993.885 95.7373 993.885 M95.7373 990.181 Q101.547 990.181 104.603 994.787 Q107.682 999.371 107.682 1008.12 Q107.682 1016.85 104.603 1021.45 Q101.547 1026.04 95.7373 1026.04 Q89.9271 1026.04 86.8484 1021.45 Q83.7929 1016.85 83.7929 1008.12 Q83.7929 999.371 86.8484 994.787 Q89.9271 990.181 95.7373 990.181 Z" fill="#4c4c4c" fill-rule="evenodd" fill-opacity="1" /><path clip-path="url(#clip140)" d="M 0 0 M112.751 1019.49 L117.635 1019.49 L117.635 1025.37 L112.751 1025.37 L112.751 1019.49 Z" fill="#4c4c4c" fill-rule="evenodd" fill-opacity="1" /><path clip-path="url(#clip140)" d="M 0 0 M122.751 990.806 L141.107 990.806 L141.107 994.741 L127.033 994.741 L127.033 1003.21 Q128.052 1002.87 129.07 1002.7 Q130.089 1002.52 131.107 1002.52 Q136.894 1002.52 140.274 1005.69 Q143.654 1008.86 143.654 1014.28 Q143.654 1019.86 140.181 1022.96 Q136.709 1026.04 130.39 1026.04 Q128.214 1026.04 125.945 1025.67 Q123.7 1025.3 121.293 1024.56 L121.293 1019.86 Q123.376 1020.99 125.598 1021.55 Q127.82 1022.1 130.297 1022.1 Q134.302 1022.1 136.64 1020 Q138.978 1017.89 138.978 1014.28 Q138.978 1010.67 136.64 1008.56 Q134.302 1006.45 130.297 1006.45 Q128.422 1006.45 126.547 1006.87 Q124.695 1007.29 122.751 1008.17 L122.751 990.806 Z" fill="#4c4c4c" fill-rule="evenodd" fill-opacity="1" /><path clip-path="url(#clip140)" d="M 0 0 M158.723 993.885 Q155.112 993.885 153.283 997.449 Q151.478 1000.99 151.478 1008.12 Q151.478 1015.23 153.283 1018.79 Q155.112 1022.33 158.723 1022.33 Q162.357 1022.33 164.163 1018.79 Q165.992 1015.23 165.992 1008.12 Q165.992 1000.99 164.163 997.449 Q162.357 993.885 158.723 993.885 M158.723 990.181 Q164.533 990.181 167.589 994.787 Q170.667 999.371 170.667 1008.12 Q170.667 1016.85 167.589 1021.45 Q164.533 1026.04 158.723 1026.04 Q152.913 1026.04 149.834 1021.45 Q146.779 1016.85 146.779 1008.12 Q146.779 999.371 149.834 994.787 Q152.913 990.181 158.723 990.181 Z" fill="#4c4c4c" fill-rule="evenodd" fill-opacity="1" /><path clip-path="url(#clip140)" d="M 0 0 M52.5893 781.21 L82.2651 781.21 L82.2651 785.145 L52.5893 785.145 L52.5893 781.21 Z" fill="#4c4c4c" fill-rule="evenodd" fill-opacity="1" /><path clip-path="url(#clip140)" d="M 0 0 M97.3345 766.557 Q93.7234 766.557 91.8947 770.122 Q90.0891 773.664 90.0891 780.793 Q90.0891 787.9 91.8947 791.465 Q93.7234 795.006 97.3345 795.006 Q100.969 795.006 102.774 791.465 Q104.603 787.9 104.603 780.793 Q104.603 773.664 102.774 770.122 Q100.969 766.557 97.3345 766.557 M97.3345 762.854 Q103.145 762.854 106.2 767.46 Q109.279 772.044 109.279 780.793 Q109.279 789.52 106.2 794.127 Q103.145 798.71 97.3345 798.71 Q91.5243 798.71 88.4456 794.127 Q85.3901 789.52 85.3901 780.793 Q85.3901 772.044 88.4456 767.46 Q91.5243 762.854 97.3345 762.854 Z" fill="#4c4c4c" fill-rule="evenodd" fill-opacity="1" /><path clip-path="url(#clip140)" d="M 0 0 M114.348 792.159 L119.233 792.159 L119.233 798.039 L114.348 798.039 L114.348 792.159 Z" fill="#4c4c4c" fill-rule="evenodd" fill-opacity="1" /><path clip-path="url(#clip140)" d="M 0 0 M128.33 794.104 L144.649 794.104 L144.649 798.039 L122.705 798.039 L122.705 794.104 Q125.367 791.349 129.95 786.719 Q134.556 782.067 135.737 780.724 Q137.982 778.201 138.862 776.465 Q139.765 774.706 139.765 773.016 Q139.765 770.261 137.82 768.525 Q135.899 766.789 132.797 766.789 Q130.598 766.789 128.144 767.553 Q125.714 768.317 122.936 769.868 L122.936 765.145 Q125.76 764.011 128.214 763.432 Q130.668 762.854 132.705 762.854 Q138.075 762.854 141.269 765.539 Q144.464 768.224 144.464 772.715 Q144.464 774.844 143.654 776.766 Q142.867 778.664 140.76 781.256 Q140.181 781.928 137.08 785.145 Q133.978 788.34 128.33 794.104 Z" fill="#4c4c4c" fill-rule="evenodd" fill-opacity="1" /><path clip-path="url(#clip140)" d="M 0 0 M149.765 763.479 L168.121 763.479 L168.121 767.414 L154.047 767.414 L154.047 775.886 Q155.066 775.539 156.084 775.377 Q157.103 775.192 158.121 775.192 Q163.908 775.192 167.288 778.363 Q170.667 781.534 170.667 786.951 Q170.667 792.53 167.195 795.631 Q163.723 798.71 157.404 798.71 Q155.228 798.71 152.959 798.34 Q150.714 797.969 148.306 797.229 L148.306 792.53 Q150.39 793.664 152.612 794.219 Q154.834 794.775 157.311 794.775 Q161.316 794.775 163.654 792.668 Q165.992 790.562 165.992 786.951 Q165.992 783.34 163.654 781.233 Q161.316 779.127 157.311 779.127 Q155.436 779.127 153.561 779.543 Q151.709 779.96 149.765 780.84 L149.765 763.479 Z" fill="#4c4c4c" fill-rule="evenodd" fill-opacity="1" /><path clip-path="url(#clip140)" d="M 0 0 M94.7419 539.23 Q91.1308 539.23 89.3021 542.795 Q87.4966 546.337 87.4966 553.466 Q87.4966 560.573 89.3021 564.138 Q91.1308 567.679 94.7419 567.679 Q98.3761 567.679 100.182 564.138 Q102.01 560.573 102.01 553.466 Q102.01 546.337 100.182 542.795 Q98.3761 539.23 94.7419 539.23 M94.7419 535.527 Q100.552 535.527 103.608 540.133 Q106.686 544.716 106.686 553.466 Q106.686 562.193 103.608 566.8 Q100.552 571.383 94.7419 571.383 Q88.9317 571.383 85.8531 566.8 Q82.7975 562.193 82.7975 553.466 Q82.7975 544.716 85.8531 540.133 Q88.9317 535.527 94.7419 535.527 Z" fill="#4c4c4c" fill-rule="evenodd" fill-opacity="1" /><path clip-path="url(#clip140)" d="M 0 0 M111.756 564.832 L116.64 564.832 L116.64 570.712 L111.756 570.712 L111.756 564.832 Z" fill="#4c4c4c" fill-rule="evenodd" fill-opacity="1" /><path clip-path="url(#clip140)" d="M 0 0 M131.709 539.23 Q128.098 539.23 126.27 542.795 Q124.464 546.337 124.464 553.466 Q124.464 560.573 126.27 564.138 Q128.098 567.679 131.709 567.679 Q135.344 567.679 137.149 564.138 Q138.978 560.573 138.978 553.466 Q138.978 546.337 137.149 542.795 Q135.344 539.23 131.709 539.23 M131.709 535.527 Q137.519 535.527 140.575 540.133 Q143.654 544.716 143.654 553.466 Q143.654 562.193 140.575 566.8 Q137.519 571.383 131.709 571.383 Q125.899 571.383 122.82 566.8 Q119.765 562.193 119.765 553.466 Q119.765 544.716 122.82 540.133 Q125.899 535.527 131.709 535.527 Z" fill="#4c4c4c" fill-rule="evenodd" fill-opacity="1" /><path clip-path="url(#clip140)" d="M 0 0 M158.723 539.23 Q155.112 539.23 153.283 542.795 Q151.478 546.337 151.478 553.466 Q151.478 560.573 153.283 564.138 Q155.112 567.679 158.723 567.679 Q162.357 567.679 164.163 564.138 Q165.992 560.573 165.992 553.466 Q165.992 546.337 164.163 542.795 Q162.357 539.23 158.723 539.23 M158.723 535.527 Q164.533 535.527 167.589 540.133 Q170.667 544.716 170.667 553.466 Q170.667 562.193 167.589 566.8 Q164.533 571.383 158.723 571.383 Q152.913 571.383 149.834 566.8 Q146.779 562.193 146.779 553.466 Q146.779 544.716 149.834 540.133 Q152.913 535.527 158.723 535.527 Z" fill="#4c4c4c" fill-rule="evenodd" fill-opacity="1" /><path clip-path="url(#clip140)" d="M 0 0 M97.3345 311.903 Q93.7234 311.903 91.8947 315.468 Q90.0891 319.01 90.0891 326.139 Q90.0891 333.246 91.8947 336.81 Q93.7234 340.352 97.3345 340.352 Q100.969 340.352 102.774 336.81 Q104.603 333.246 104.603 326.139 Q104.603 319.01 102.774 315.468 Q100.969 311.903 97.3345 311.903 M97.3345 308.199 Q103.145 308.199 106.2 312.806 Q109.279 317.389 109.279 326.139 Q109.279 334.866 106.2 339.472 Q103.145 344.056 97.3345 344.056 Q91.5243 344.056 88.4456 339.472 Q85.3901 334.866 85.3901 326.139 Q85.3901 317.389 88.4456 312.806 Q91.5243 308.199 97.3345 308.199 Z" fill="#4c4c4c" fill-rule="evenodd" fill-opacity="1" /><path clip-path="url(#clip140)" d="M 0 0 M114.348 337.505 L119.233 337.505 L119.233 343.384 L114.348 343.384 L114.348 337.505 Z" fill="#4c4c4c" fill-rule="evenodd" fill-opacity="1" /><path clip-path="url(#clip140)" d="M 0 0 M128.33 339.449 L144.649 339.449 L144.649 343.384 L122.705 343.384 L122.705 339.449 Q125.367 336.695 129.95 332.065 Q134.556 327.412 135.737 326.07 Q137.982 323.547 138.862 321.81 Q139.765 320.051 139.765 318.361 Q139.765 315.607 137.82 313.871 Q135.899 312.135 132.797 312.135 Q130.598 312.135 128.144 312.898 Q125.714 313.662 122.936 315.213 L122.936 310.491 Q125.76 309.357 128.214 308.778 Q130.668 308.199 132.705 308.199 Q138.075 308.199 141.269 310.885 Q144.464 313.57 144.464 318.06 Q144.464 320.19 143.654 322.111 Q142.867 324.009 140.76 326.602 Q140.181 327.273 137.08 330.491 Q133.978 333.685 128.33 339.449 Z" fill="#4c4c4c" fill-rule="evenodd" fill-opacity="1" /><path clip-path="url(#clip140)" d="M 0 0 M149.765 308.824 L168.121 308.824 L168.121 312.76 L154.047 312.76 L154.047 321.232 Q155.066 320.885 156.084 320.722 Q157.103 320.537 158.121 320.537 Q163.908 320.537 167.288 323.709 Q170.667 326.88 170.667 332.296 Q170.667 337.875 167.195 340.977 Q163.723 344.056 157.404 344.056 Q155.228 344.056 152.959 343.685 Q150.714 343.315 148.306 342.574 L148.306 337.875 Q150.39 339.009 152.612 339.565 Q154.834 340.121 157.311 340.121 Q161.316 340.121 163.654 338.014 Q165.992 335.908 165.992 332.296 Q165.992 328.685 163.654 326.579 Q161.316 324.472 157.311 324.472 Q155.436 324.472 153.561 324.889 Q151.709 325.306 149.765 326.185 L149.765 308.824 Z" fill="#4c4c4c" fill-rule="evenodd" fill-opacity="1" /><path clip-path="url(#clip140)" d="M 0 0 M616.05 45.1919 L616.05 72.576 L608.596 72.576 L608.596 45.4349 Q608.596 38.994 606.085 35.7938 Q603.573 32.5936 598.55 32.5936 Q592.514 32.5936 589.031 36.4419 Q585.547 40.2903 585.547 46.9338 L585.547 72.576 L578.053 72.576 L578.053 27.2059 L585.547 27.2059 L585.547 34.2544 Q588.22 30.163 591.826 28.1376 Q595.472 26.1121 600.211 26.1121 Q608.029 26.1121 612.04 30.9732 Q616.05 35.7938 616.05 45.1919 Z" fill="#000000" fill-rule="evenodd" fill-opacity="1" /><path clip-path="url(#clip140)" d="M 0 0 M641.449 32.4315 Q635.454 32.4315 631.97 37.1306 Q628.486 41.7891 628.486 49.9314 Q628.486 58.0738 631.93 62.7728 Q635.413 67.4314 641.449 67.4314 Q647.404 67.4314 650.888 62.7323 Q654.372 58.0333 654.372 49.9314 Q654.372 41.8701 650.888 37.1711 Q647.404 32.4315 641.449 32.4315 M641.449 26.1121 Q651.171 26.1121 656.721 32.4315 Q662.271 38.7509 662.271 49.9314 Q662.271 61.0714 656.721 67.4314 Q651.171 73.7508 641.449 73.7508 Q631.687 73.7508 626.137 67.4314 Q620.628 61.0714 620.628 49.9314 Q620.628 38.7509 626.137 32.4315 Q631.687 26.1121 641.449 26.1121 Z" fill="#000000" fill-rule="evenodd" fill-opacity="1" /><path clip-path="url(#clip140)" d="M 0 0 M678.596 18.8205 L678.596 65.8515 L688.48 65.8515 Q700.998 65.8515 706.79 60.1802 Q712.624 54.509 712.624 42.2752 Q712.624 30.1225 706.79 24.4918 Q700.998 18.8205 688.48 18.8205 L678.596 18.8205 M670.413 12.096 L687.225 12.096 Q704.805 12.096 713.029 19.4281 Q721.252 26.7198 721.252 42.2752 Q721.252 57.9117 712.988 65.2439 Q704.724 72.576 687.225 72.576 L670.413 72.576 L670.413 12.096 Z" fill="#000000" fill-rule="evenodd" fill-opacity="1" /><path clip-path="url(#clip140)" d="M 0 0 M767.878 48.0275 L767.878 51.6733 L733.607 51.6733 Q734.093 59.3701 738.225 63.421 Q742.398 67.4314 749.811 67.4314 Q754.105 67.4314 758.115 66.3781 Q762.166 65.3249 766.136 63.2184 L766.136 70.267 Q762.126 71.9684 757.913 72.8596 Q753.7 73.7508 749.365 73.7508 Q738.509 73.7508 732.149 67.4314 Q725.83 61.1119 725.83 50.3365 Q725.83 39.1965 731.825 32.6746 Q737.861 26.1121 748.069 26.1121 Q757.224 26.1121 762.531 32.0264 Q767.878 37.9003 767.878 48.0275 M760.424 45.84 Q760.343 39.7232 756.981 36.0774 Q753.659 32.4315 748.15 32.4315 Q741.912 32.4315 738.144 35.9558 Q734.418 39.4801 733.85 45.8805 L760.424 45.84 Z" fill="#000000" fill-rule="evenodd" fill-opacity="1" /><path clip-path="url(#clip140)" d="M 0 0 M811.02 35.9153 Q813.815 30.8922 817.704 28.5022 Q821.593 26.1121 826.859 26.1121 Q833.948 26.1121 837.797 31.0947 Q841.645 36.0368 841.645 45.1919 L841.645 72.576 L834.151 72.576 L834.151 45.4349 Q834.151 38.913 831.842 35.7533 Q829.533 32.5936 824.793 32.5936 Q819 32.5936 815.638 36.4419 Q812.276 40.2903 812.276 46.9338 L812.276 72.576 L804.782 72.576 L804.782 45.4349 Q804.782 38.8725 802.473 35.7533 Q800.164 32.5936 795.343 32.5936 Q789.631 32.5936 786.269 36.4824 Q782.907 40.3308 782.907 46.9338 L782.907 72.576 L775.413 72.576 L775.413 27.2059 L782.907 27.2059 L782.907 34.2544 Q785.459 30.082 789.024 28.0971 Q792.589 26.1121 797.49 26.1121 Q802.432 26.1121 805.875 28.6237 Q809.359 31.1352 811.02 35.9153 Z" fill="#000000" fill-rule="evenodd" fill-opacity="1" /><path clip-path="url(#clip140)" d="M 0 0 M867.044 32.4315 Q861.049 32.4315 857.565 37.1306 Q854.081 41.7891 854.081 49.9314 Q854.081 58.0738 857.525 62.7728 Q861.008 67.4314 867.044 67.4314 Q872.999 67.4314 876.483 62.7323 Q879.967 58.0333 879.967 49.9314 Q879.967 41.8701 876.483 37.1711 Q872.999 32.4315 867.044 32.4315 M867.044 26.1121 Q876.766 26.1121 882.316 32.4315 Q887.866 38.7509 887.866 49.9314 Q887.866 61.0714 882.316 67.4314 Q876.766 73.7508 867.044 73.7508 Q857.281 73.7508 851.732 67.4314 Q846.222 61.0714 846.222 49.9314 Q846.222 38.7509 851.732 32.4315 Q857.281 26.1121 867.044 26.1121 Z" fill="#000000" fill-rule="evenodd" fill-opacity="1" /><path clip-path="url(#clip140)" d="M 0 0 M925.539 49.3643 Q925.539 41.2625 922.177 36.8065 Q918.855 32.3505 912.819 32.3505 Q906.824 32.3505 903.462 36.8065 Q900.14 41.2625 900.14 49.3643 Q900.14 57.4256 903.462 61.8816 Q906.824 66.3376 912.819 66.3376 Q918.855 66.3376 922.177 61.8816 Q925.539 57.4256 925.539 49.3643 M932.993 66.9452 Q932.993 78.5308 927.848 84.1616 Q922.704 89.8329 912.09 89.8329 Q908.161 89.8329 904.677 89.2252 Q901.193 88.6581 897.912 87.4428 L897.912 80.1917 Q901.193 81.9741 904.393 82.8248 Q907.594 83.6755 910.915 83.6755 Q918.248 83.6755 921.893 79.8271 Q925.539 76.0193 925.539 68.282 L925.539 64.5957 Q923.23 68.6061 919.625 70.5911 Q916.02 72.576 910.996 72.576 Q902.652 72.576 897.547 66.2161 Q892.443 59.8562 892.443 49.3643 Q892.443 38.832 897.547 32.472 Q902.652 26.1121 910.996 26.1121 Q916.02 26.1121 919.625 28.0971 Q923.23 30.082 925.539 34.0924 L925.539 27.2059 L932.993 27.2059 L932.993 66.9452 Z" fill="#000000" fill-rule="evenodd" fill-opacity="1" /><path clip-path="url(#clip140)" d="M 0 0 M975.284 86.3491 L975.284 92.1419 L932.183 92.1419 L932.183 86.3491 L975.284 86.3491 Z" fill="#000000" fill-rule="evenodd" fill-opacity="1" /><path clip-path="url(#clip140)" d="M 0 0 M1001.66 17.4837 Q995.336 17.4837 992.136 23.7221 Q988.976 29.92 988.976 42.3968 Q988.976 54.833 992.136 61.0714 Q995.336 67.2693 1001.66 67.2693 Q1008.02 67.2693 1011.18 61.0714 Q1014.38 54.833 1014.38 42.3968 Q1014.38 29.92 1011.18 23.7221 Q1008.02 17.4837 1001.66 17.4837 M1001.66 11.0023 Q1011.82 11.0023 1017.17 19.0636 Q1022.56 27.0843 1022.56 42.3968 Q1022.56 57.6687 1017.17 65.73 Q1011.82 73.7508 1001.66 73.7508 Q991.488 73.7508 986.1 65.73 Q980.753 57.6687 980.753 42.3968 Q980.753 27.0843 986.1 19.0636 Q991.488 11.0023 1001.66 11.0023 Z" fill="#000000" fill-rule="evenodd" fill-opacity="1" /><path clip-path="url(#clip140)" d="M 0 0 M1031.43 62.2867 L1039.98 62.2867 L1039.98 72.576 L1031.43 72.576 L1031.43 62.2867 Z" fill="#000000" fill-rule="evenodd" fill-opacity="1" /><path clip-path="url(#clip140)" d="M 0 0 M1071.33 19.2256 L1050.67 51.5113 L1071.33 51.5113 L1071.33 19.2256 M1069.18 12.096 L1079.47 12.096 L1079.47 51.5113 L1088.1 51.5113 L1088.1 58.3168 L1079.47 58.3168 L1079.47 72.576 L1071.33 72.576 L1071.33 58.3168 L1044.03 58.3168 L1044.03 50.4176 L1069.18 12.096 Z" fill="#000000" fill-rule="evenodd" fill-opacity="1" /><path clip-path="url(#clip140)" d="M 0 0 M1130.39 86.3491 L1130.39 92.1419 L1087.29 92.1419 L1087.29 86.3491 L1130.39 86.3491 Z" fill="#000000" fill-rule="evenodd" fill-opacity="1" /><path clip-path="url(#clip140)" d="M 0 0 M1156.76 17.4837 Q1150.45 17.4837 1147.25 23.7221 Q1144.09 29.92 1144.09 42.3968 Q1144.09 54.833 1147.25 61.0714 Q1150.45 67.2693 1156.76 67.2693 Q1163.12 67.2693 1166.28 61.0714 Q1169.48 54.833 1169.48 42.3968 Q1169.48 29.92 1166.28 23.7221 Q1163.12 17.4837 1156.76 17.4837 M1156.76 11.0023 Q1166.93 11.0023 1172.28 19.0636 Q1177.67 27.0843 1177.67 42.3968 Q1177.67 57.6687 1172.28 65.73 Q1166.93 73.7508 1156.76 73.7508 Q1146.6 73.7508 1141.21 65.73 Q1135.86 57.6687 1135.86 42.3968 Q1135.86 27.0843 1141.21 19.0636 Q1146.6 11.0023 1156.76 11.0023 Z" fill="#000000" fill-rule="evenodd" fill-opacity="1" /><path clip-path="url(#clip140)" d="M 0 0 M1186.54 62.2867 L1195.09 62.2867 L1195.09 72.576 L1186.54 72.576 L1186.54 62.2867 Z" fill="#000000" fill-rule="evenodd" fill-opacity="1" /><path clip-path="url(#clip140)" d="M 0 0 M1228.75 39.9662 Q1234.62 41.222 1237.9 45.1919 Q1241.23 49.1618 1241.23 54.9951 Q1241.23 63.9476 1235.07 68.8492 Q1228.91 73.7508 1217.57 73.7508 Q1213.76 73.7508 1209.71 72.9811 Q1205.7 72.2519 1201.41 70.7531 L1201.41 62.8538 Q1204.81 64.8388 1208.86 65.8515 Q1212.91 66.8642 1217.33 66.8642 Q1225.02 66.8642 1229.03 63.826 Q1233.08 60.7879 1233.08 54.9951 Q1233.08 49.6479 1229.32 46.6502 Q1225.59 43.612 1218.91 43.612 L1211.86 43.612 L1211.86 36.8875 L1219.23 36.8875 Q1225.27 36.8875 1228.47 34.4975 Q1231.67 32.067 1231.67 27.5299 Q1231.67 22.8714 1228.34 20.4004 Q1225.06 17.8888 1218.91 17.8888 Q1215.54 17.8888 1211.7 18.618 Q1207.85 19.3471 1203.23 20.8865 L1203.23 13.5948 Q1207.89 12.2985 1211.94 11.6504 Q1216.03 11.0023 1219.63 11.0023 Q1228.95 11.0023 1234.38 15.2557 Q1239.81 19.4686 1239.81 26.6793 Q1239.81 31.7024 1236.93 35.1862 Q1234.06 38.6294 1228.75 39.9662 Z" fill="#000000" fill-rule="evenodd" fill-opacity="1" /><path clip-path="url(#clip140)" d="M 0 0 M1283.52 86.3491 L1283.52 92.1419 L1240.42 92.1419 L1240.42 86.3491 L1283.52 86.3491 Z" fill="#000000" fill-rule="evenodd" fill-opacity="1" /><path clip-path="url(#clip140)" d="M 0 0 M1309.89 17.4837 Q1303.57 17.4837 1300.37 23.7221 Q1297.21 29.92 1297.21 42.3968 Q1297.21 54.833 1300.37 61.0714 Q1303.57 67.2693 1309.89 67.2693 Q1316.25 67.2693 1319.41 61.0714 Q1322.61 54.833 1322.61 42.3968 Q1322.61 29.92 1319.41 23.7221 Q1316.25 17.4837 1309.89 17.4837 M1309.89 11.0023 Q1320.06 11.0023 1325.4 19.0636 Q1330.79 27.0843 1330.79 42.3968 Q1330.79 57.6687 1325.4 65.73 Q1320.06 73.7508 1309.89 73.7508 Q1299.72 73.7508 1294.33 65.73 Q1288.99 57.6687 1288.99 42.3968 Q1288.99 27.0843 1294.33 19.0636 Q1299.72 11.0023 1309.89 11.0023 Z" fill="#000000" fill-rule="evenodd" fill-opacity="1" /><path clip-path="url(#clip140)" d="M 0 0 M1339.66 62.2867 L1348.21 62.2867 L1348.21 72.576 L1339.66 72.576 L1339.66 62.2867 Z" fill="#000000" fill-rule="evenodd" fill-opacity="1" /><path clip-path="url(#clip140)" d="M 0 0 M1379.56 19.2256 L1358.9 51.5113 L1379.56 51.5113 L1379.56 19.2256 M1377.42 12.096 L1387.71 12.096 L1387.71 51.5113 L1396.34 51.5113 L1396.34 58.3168 L1387.71 58.3168 L1387.71 72.576 L1379.56 72.576 L1379.56 58.3168 L1352.26 58.3168 L1352.26 50.4176 L1377.42 12.096 Z" fill="#000000" fill-rule="evenodd" fill-opacity="1" /><polyline clip-path="url(#clip142)" style="stroke:#009af9; stroke-width:4; stroke-opacity:1; fill:none" points="
  250.848,1447.87 265.724,927.176 280.6,831.271 295.475,782.359 310.351,696.902 325.227,693.783 340.102,659.466 354.978,668.959 369.854,653.237 384.729,584.521 
  399.605,657.557 414.481,559.769 429.356,590.941 444.232,481.433 459.108,562.379 473.983,553.195 488.859,481.487 503.735,552.731 518.61,509.667 533.486,448.125 
  548.362,479.041 563.237,506.739 578.113,464.156 592.989,400.768 607.864,483.406 622.74,381.745 637.616,505.784 652.491,537.71 667.367,447.27 682.243,500.328 
  697.118,518.978 711.994,596.633 726.87,528.953 741.745,316.329 756.621,376.125 771.497,371.506 786.372,457.036 801.248,477.332 816.124,480.887 830.999,356.375 
  845.875,442.578 860.751,370.942 875.626,397.667 890.502,431.13 905.378,435.203 920.253,409.688 935.129,364.841 950.005,383.964 964.88,410.079 979.756,359.603 
  994.632,347.937 1009.51,401.513 1024.38,480.541 1039.26,435.349 1054.13,344.818 1069.01,562.152 1083.89,503.947 1098.76,517.432 1113.64,476.249 1128.51,350.301 
  1143.39,276.956 1158.26,495.918 1173.14,331.742 1188.02,368.396 1202.89,269.2 1217.77,419.09 1232.64,226.326 1247.52,295.97 1262.39,433.503 1277.27,533.827 
  1292.15,336.18 1307.02,350.447 1321.9,372.443 1336.77,383.709 1351.65,251.277 1366.52,492.799 1381.4,367.151 1396.27,607.372 1411.15,492.162 1426.03,436.995 
  1440.9,330.296 1455.78,418.481 1470.65,350.037 1485.53,408.379 1500.4,418.663 1515.28,524.416 1530.16,387.046 1545.03,343.499 1559.91,481.087 1574.78,344.063 
  1589.66,354.429 1604.53,538.073 1619.41,485.415 1634.29,383.136 1649.16,600.252 1664.04,540.192 1678.91,402.204 1693.79,521.333 1708.66,508.257 1723.54,534.291 
  
  "/>
<polyline clip-path="url(#clip142)" style="stroke:#e26f46; stroke-width:4; stroke-opacity:1; fill:none" points="
  250.848,1389.36 265.724,894.413 280.6,749.615 295.475,665.94 310.351,662.94 325.227,617.929 340.102,633.751 354.978,538.755 369.854,602.989 384.729,557.151 
  399.605,569.281 414.481,503.001 429.356,532.836 444.232,525.516 459.108,477.595 473.983,516.223 488.859,411.916 503.735,459.491 518.61,438.004 533.486,403.768 
  548.362,447.324 563.237,420.454 578.113,376.216 592.989,414.544 607.864,477.704 622.74,383.127 637.616,516.441 652.491,499.237 667.367,477.859 682.243,279.966 
  697.118,455.199 711.994,372.134 726.87,413.953 741.745,353.638 756.621,359.849 771.497,384.373 786.372,438.54 801.248,399.122 816.124,442.323 830.999,377.608 
  845.875,392.793 860.751,424.519 875.626,399.931 890.502,400.413 905.378,464.092 920.253,279.693 935.129,252.887 950.005,285.222 964.88,256.624 979.756,292.587 
  994.632,353.684 1009.51,406.196 1024.38,249.159 1039.26,321.476 1054.13,353.511 1069.01,297.634 1083.89,452.917 1098.76,320.021 1113.64,344.945 1128.51,330.915 
  1143.39,400.349 1158.26,387.01 1173.14,393.793 1188.02,312.919 1202.89,332.642 1217.77,232.018 1232.64,324.722 1247.52,434.512 1262.39,337.716 1277.27,272.046 
  1292.15,404.914 1307.02,162.047 1321.9,400.468 1336.77,316.493 1351.65,372.679 1366.52,337.634 1381.4,389.974 1396.27,388.628 1411.15,363.677 1426.03,330.142 
  1440.9,335.379 1455.78,314.265 1470.65,251.414 1485.53,464.292 1500.4,403.014 1515.28,240.038 1530.16,375.825 1545.03,255.988 1559.91,370.688 1574.78,319.194 
  1589.66,193.973 1604.53,473.885 1619.41,265.772 1634.29,294.215 1649.16,417.126 1664.04,380.317 1678.91,434.558 1693.79,404.496 1708.66,632.669 1723.54,609.563 
  
  "/>
<polyline clip-path="url(#clip142)" style="stroke:#3da44d; stroke-width:4; stroke-opacity:1; fill:none" points="
  -1354.39,389.069 3328.77,389.069 
  "/>
<path clip-path="url(#clip140)" d="
M1839.26 1441.02 L2352.76 1441.02 L2352.76 1199.1 L1839.26 1199.1  Z
  " fill="#eaeaea" fill-rule="evenodd" fill-opacity="1"/>
<polyline clip-path="url(#clip140)" style="stroke:#ffffff; stroke-width:4; stroke-opacity:1; fill:none" points="
  1839.26,1441.02 2352.76,1441.02 2352.76,1199.1 1839.26,1199.1 1839.26,1441.02 
  "/>
<polyline clip-path="url(#clip140)" style="stroke:#009af9; stroke-width:4; stroke-opacity:1; fill:none" points="
  1863.1,1259.58 2006.17,1259.58 
  "/>
<path clip-path="url(#clip140)" d="M 0 0 M2030.02 1242.3 L2034.7 1242.3 L2034.7 1276.86 L2030.02 1276.86 L2030.02 1242.3 Z" fill="#000000" fill-rule="evenodd" fill-opacity="1" /><path clip-path="url(#clip140)" d="M 0 0 M2060.71 1261.21 L2060.71 1276.86 L2056.46 1276.86 L2056.46 1261.35 Q2056.46 1257.67 2055.02 1255.84 Q2053.58 1254.01 2050.71 1254.01 Q2047.27 1254.01 2045.27 1256.21 Q2043.28 1258.41 2043.28 1262.2 L2043.28 1276.86 L2039 1276.86 L2039 1250.93 L2043.28 1250.93 L2043.28 1254.96 Q2044.81 1252.62 2046.87 1251.46 Q2048.96 1250.3 2051.66 1250.3 Q2056.13 1250.3 2058.42 1253.08 Q2060.71 1255.84 2060.71 1261.21 Z" fill="#000000" fill-rule="evenodd" fill-opacity="1" /><path clip-path="url(#clip140)" d="M 0 0 M2069.3 1272.97 L2069.3 1286.72 L2065.02 1286.72 L2065.02 1250.93 L2069.3 1250.93 L2069.3 1254.86 Q2070.65 1252.55 2072.68 1251.44 Q2074.74 1250.3 2077.59 1250.3 Q2082.31 1250.3 2085.25 1254.05 Q2088.21 1257.8 2088.21 1263.92 Q2088.21 1270.03 2085.25 1273.78 Q2082.31 1277.53 2077.59 1277.53 Q2074.74 1277.53 2072.68 1276.42 Q2070.65 1275.28 2069.3 1272.97 M2083.79 1263.92 Q2083.79 1259.22 2081.85 1256.55 Q2079.93 1253.87 2076.55 1253.87 Q2073.17 1253.87 2071.22 1256.55 Q2069.3 1259.22 2069.3 1263.92 Q2069.3 1268.61 2071.22 1271.3 Q2073.17 1273.96 2076.55 1273.96 Q2079.93 1273.96 2081.85 1271.3 Q2083.79 1268.61 2083.79 1263.92 Z" fill="#000000" fill-rule="evenodd" fill-opacity="1" /><path clip-path="url(#clip140)" d="M 0 0 M2092.24 1266.62 L2092.24 1250.93 L2096.5 1250.93 L2096.5 1266.46 Q2096.5 1270.14 2097.94 1271.99 Q2099.37 1273.82 2102.24 1273.82 Q2105.69 1273.82 2107.68 1271.62 Q2109.7 1269.42 2109.7 1265.63 L2109.7 1250.93 L2113.95 1250.93 L2113.95 1276.86 L2109.7 1276.86 L2109.7 1272.87 Q2108.14 1275.23 2106.08 1276.39 Q2104.05 1277.53 2101.34 1277.53 Q2096.87 1277.53 2094.56 1274.75 Q2092.24 1271.97 2092.24 1266.62 M2102.96 1250.3 L2102.96 1250.3 Z" fill="#000000" fill-rule="evenodd" fill-opacity="1" /><path clip-path="url(#clip140)" d="M 0 0 M2122.64 1243.57 L2122.64 1250.93 L2131.41 1250.93 L2131.41 1254.24 L2122.64 1254.24 L2122.64 1268.31 Q2122.64 1271.49 2123.49 1272.39 Q2124.37 1273.29 2127.03 1273.29 L2131.41 1273.29 L2131.41 1276.86 L2127.03 1276.86 Q2122.1 1276.86 2120.23 1275.03 Q2118.35 1273.17 2118.35 1268.31 L2118.35 1254.24 L2115.23 1254.24 L2115.23 1250.93 L2118.35 1250.93 L2118.35 1243.57 L2122.64 1243.57 Z" fill="#000000" fill-rule="evenodd" fill-opacity="1" /><path clip-path="url(#clip140)" d="M 0 0 M2166.06 1264.8 L2165.04 1259.45 Q2164 1253.96 2159.88 1253.96 Q2156.78 1253.96 2155.37 1256.51 Q2153.58 1259.7 2153.58 1263.92 Q2153.58 1269.01 2155.32 1271.44 Q2157.08 1273.92 2159.88 1273.92 Q2162.98 1273.92 2164.65 1268.99 L2166.06 1264.8 M2168.45 1257.71 L2170.74 1250.93 L2174.53 1250.93 L2169.79 1264.98 L2170.71 1270.05 Q2170.92 1271.18 2171.73 1272.13 Q2172.68 1273.24 2173.42 1273.24 L2175.46 1273.24 L2175.46 1276.86 L2172.91 1276.86 Q2170.74 1276.86 2168.79 1274.91 Q2167.84 1273.94 2167.45 1271.9 Q2166.39 1274.47 2164.21 1276.48 Q2163.19 1277.43 2159.88 1277.43 Q2154.44 1277.43 2151.8 1273.92 Q2149.09 1270.28 2149.09 1263.92 Q2149.09 1257.11 2152.03 1253.92 Q2155.3 1250.35 2159.88 1250.35 Q2167.08 1250.35 2168.45 1257.71 Z" fill="#000000" fill-rule="evenodd" fill-opacity="1" /><path clip-path="url(#clip140)" d="M 0 0 M2190.16 1240.88 Q2187.06 1246.21 2185.55 1251.42 Q2184.05 1256.62 2184.05 1261.97 Q2184.05 1267.32 2185.55 1272.57 Q2187.08 1277.8 2190.16 1283.11 L2186.45 1283.11 Q2182.98 1277.67 2181.25 1272.41 Q2179.53 1267.16 2179.53 1261.97 Q2179.53 1256.81 2181.25 1251.58 Q2182.96 1246.35 2186.45 1240.88 L2190.16 1240.88 Z" fill="#000000" fill-rule="evenodd" fill-opacity="1" /><path clip-path="url(#clip140)" d="M 0 0 M2216.18 1250.93 L2206.8 1263.55 L2216.66 1276.86 L2211.64 1276.86 L2204.09 1266.67 L2196.55 1276.86 L2191.52 1276.86 L2201.59 1263.29 L2192.38 1250.93 L2197.4 1250.93 L2204.28 1260.17 L2211.15 1250.93 L2216.18 1250.93 Z" fill="#000000" fill-rule="evenodd" fill-opacity="1" /><path clip-path="url(#clip140)" d="M 0 0 M2220.46 1240.88 L2224.16 1240.88 Q2227.63 1246.35 2229.35 1251.58 Q2231.08 1256.81 2231.08 1261.97 Q2231.08 1267.16 2229.35 1272.41 Q2227.63 1277.67 2224.16 1283.11 L2220.46 1283.11 Q2223.54 1277.8 2225.04 1272.57 Q2226.57 1267.32 2226.57 1261.97 Q2226.57 1256.62 2225.04 1251.42 Q2223.54 1246.21 2220.46 1240.88 Z" fill="#000000" fill-rule="evenodd" fill-opacity="1" /><polyline clip-path="url(#clip140)" style="stroke:#e26f46; stroke-width:4; stroke-opacity:1; fill:none" points="
  1863.1,1320.06 2006.17,1320.06 
  "/>
<path clip-path="url(#clip140)" d="M 0 0 M2048.45 1312.17 L2048.45 1316.2 Q2046.64 1315.28 2044.7 1314.81 Q2042.75 1314.35 2040.67 1314.35 Q2037.5 1314.35 2035.9 1315.32 Q2034.33 1316.29 2034.33 1318.24 Q2034.33 1319.72 2035.46 1320.58 Q2036.59 1321.41 2040.02 1322.17 L2041.48 1322.5 Q2046.02 1323.47 2047.91 1325.25 Q2049.83 1327.01 2049.83 1330.18 Q2049.83 1333.79 2046.96 1335.9 Q2044.12 1338.01 2039.12 1338.01 Q2037.03 1338.01 2034.77 1337.59 Q2032.52 1337.2 2030.02 1336.39 L2030.02 1331.99 Q2032.38 1333.22 2034.67 1333.84 Q2036.96 1334.44 2039.21 1334.44 Q2042.22 1334.44 2043.84 1333.42 Q2045.46 1332.38 2045.46 1330.51 Q2045.46 1328.77 2044.28 1327.84 Q2043.12 1326.92 2039.16 1326.06 L2037.68 1325.72 Q2033.72 1324.88 2031.96 1323.17 Q2030.21 1321.43 2030.21 1318.42 Q2030.21 1314.77 2032.8 1312.78 Q2035.39 1310.78 2040.16 1310.78 Q2042.52 1310.78 2044.6 1311.13 Q2046.69 1311.48 2048.45 1312.17 Z" fill="#000000" fill-rule="evenodd" fill-opacity="1" /><path clip-path="url(#clip140)" d="M 0 0 M2066.08 1324.3 Q2060.92 1324.3 2058.93 1325.48 Q2056.94 1326.66 2056.94 1329.51 Q2056.94 1331.78 2058.42 1333.12 Q2059.93 1334.44 2062.5 1334.44 Q2066.04 1334.44 2068.17 1331.94 Q2070.32 1329.42 2070.32 1325.25 L2070.32 1324.3 L2066.08 1324.3 M2074.58 1322.54 L2074.58 1337.34 L2070.32 1337.34 L2070.32 1333.4 Q2068.86 1335.76 2066.69 1336.9 Q2064.51 1338.01 2061.36 1338.01 Q2057.38 1338.01 2055.02 1335.78 Q2052.68 1333.54 2052.68 1329.79 Q2052.68 1325.41 2055.6 1323.19 Q2058.54 1320.97 2064.35 1320.97 L2070.32 1320.97 L2070.32 1320.55 Q2070.32 1317.61 2068.38 1316.02 Q2066.46 1314.4 2062.96 1314.4 Q2060.74 1314.4 2058.63 1314.93 Q2056.52 1315.46 2054.58 1316.53 L2054.58 1312.59 Q2056.92 1311.69 2059.12 1311.25 Q2061.32 1310.78 2063.4 1310.78 Q2069.02 1310.78 2071.8 1313.7 Q2074.58 1316.62 2074.58 1322.54 Z" fill="#000000" fill-rule="evenodd" fill-opacity="1" /><path clip-path="url(#clip140)" d="M 0 0 M2099.23 1316.39 Q2100.83 1313.52 2103.05 1312.15 Q2105.27 1310.78 2108.28 1310.78 Q2112.33 1310.78 2114.53 1313.63 Q2116.73 1316.46 2116.73 1321.69 L2116.73 1337.34 L2112.45 1337.34 L2112.45 1321.83 Q2112.45 1318.1 2111.13 1316.29 Q2109.81 1314.49 2107.1 1314.49 Q2103.79 1314.49 2101.87 1316.69 Q2099.95 1318.89 2099.95 1322.68 L2099.95 1337.34 L2095.67 1337.34 L2095.67 1321.83 Q2095.67 1318.08 2094.35 1316.29 Q2093.03 1314.49 2090.27 1314.49 Q2087.01 1314.49 2085.09 1316.71 Q2083.17 1318.91 2083.17 1322.68 L2083.17 1337.34 L2078.89 1337.34 L2078.89 1311.41 L2083.17 1311.41 L2083.17 1315.44 Q2084.63 1313.05 2086.66 1311.92 Q2088.7 1310.78 2091.5 1310.78 Q2094.33 1310.78 2096.29 1312.22 Q2098.28 1313.65 2099.23 1316.39 Z" fill="#000000" fill-rule="evenodd" fill-opacity="1" /><path clip-path="url(#clip140)" d="M 0 0 M2125.32 1333.45 L2125.32 1347.2 L2121.04 1347.2 L2121.04 1311.41 L2125.32 1311.41 L2125.32 1315.34 Q2126.66 1313.03 2128.7 1311.92 Q2130.76 1310.78 2133.61 1310.78 Q2138.33 1310.78 2141.27 1314.53 Q2144.23 1318.28 2144.23 1324.4 Q2144.23 1330.51 2141.27 1334.26 Q2138.33 1338.01 2133.61 1338.01 Q2130.76 1338.01 2128.7 1336.9 Q2126.66 1335.76 2125.32 1333.45 M2139.81 1324.4 Q2139.81 1319.7 2137.87 1317.03 Q2135.95 1314.35 2132.57 1314.35 Q2129.19 1314.35 2127.24 1317.03 Q2125.32 1319.7 2125.32 1324.4 Q2125.32 1329.09 2127.24 1331.78 Q2129.19 1334.44 2132.57 1334.44 Q2135.95 1334.44 2137.87 1331.78 Q2139.81 1329.09 2139.81 1324.4 Z" fill="#000000" fill-rule="evenodd" fill-opacity="1" /><path clip-path="url(#clip140)" d="M 0 0 M2148.7 1301.32 L2152.96 1301.32 L2152.96 1337.34 L2148.7 1337.34 L2148.7 1301.32 Z" fill="#000000" fill-rule="evenodd" fill-opacity="1" /><path clip-path="url(#clip140)" d="M 0 0 M2179.6 1323.31 L2179.6 1325.39 L2160.02 1325.39 Q2160.3 1329.79 2162.66 1332.1 Q2165.04 1334.4 2169.28 1334.4 Q2171.73 1334.4 2174.02 1333.79 Q2176.34 1333.19 2178.61 1331.99 L2178.61 1336.02 Q2176.32 1336.99 2173.91 1337.5 Q2171.5 1338.01 2169.02 1338.01 Q2162.82 1338.01 2159.19 1334.4 Q2155.58 1330.78 2155.58 1324.63 Q2155.58 1318.26 2159 1314.53 Q2162.45 1310.78 2168.28 1310.78 Q2173.51 1310.78 2176.55 1314.16 Q2179.6 1317.52 2179.6 1323.31 M2175.34 1322.06 Q2175.3 1318.56 2173.38 1316.48 Q2171.48 1314.4 2168.33 1314.4 Q2164.76 1314.4 2162.61 1316.41 Q2160.48 1318.42 2160.16 1322.08 L2175.34 1322.06 Z" fill="#000000" fill-rule="evenodd" fill-opacity="1" /><path clip-path="url(#clip140)" d="M 0 0 M2201.13 1315.34 L2201.13 1301.32 L2205.39 1301.32 L2205.39 1337.34 L2201.13 1337.34 L2201.13 1333.45 Q2199.79 1335.76 2197.73 1336.9 Q2195.69 1338.01 2192.82 1338.01 Q2188.12 1338.01 2185.16 1334.26 Q2182.22 1330.51 2182.22 1324.4 Q2182.22 1318.28 2185.16 1314.53 Q2188.12 1310.78 2192.82 1310.78 Q2195.69 1310.78 2197.73 1311.92 Q2199.79 1313.03 2201.13 1315.34 M2186.62 1324.4 Q2186.62 1329.09 2188.54 1331.78 Q2190.48 1334.44 2193.86 1334.44 Q2197.24 1334.44 2199.19 1331.78 Q2201.13 1329.09 2201.13 1324.4 Q2201.13 1319.7 2199.19 1317.03 Q2197.24 1314.35 2193.86 1314.35 Q2190.48 1314.35 2188.54 1317.03 Q2186.62 1319.7 2186.62 1324.4 Z" fill="#000000" fill-rule="evenodd" fill-opacity="1" /><path clip-path="url(#clip140)" d="M 0 0 M2240.04 1325.28 L2239.02 1319.93 Q2237.98 1314.44 2233.86 1314.44 Q2230.76 1314.44 2229.35 1316.99 Q2227.57 1320.18 2227.57 1324.4 Q2227.57 1329.49 2229.3 1331.92 Q2231.06 1334.4 2233.86 1334.4 Q2236.96 1334.4 2238.63 1329.47 L2240.04 1325.28 M2242.43 1318.19 L2244.72 1311.41 L2248.51 1311.41 L2243.77 1325.46 L2244.7 1330.53 Q2244.9 1331.66 2245.71 1332.61 Q2246.66 1333.72 2247.4 1333.72 L2249.44 1333.72 L2249.44 1337.34 L2246.89 1337.34 Q2244.72 1337.34 2242.77 1335.39 Q2241.82 1334.42 2241.43 1332.38 Q2240.37 1334.95 2238.19 1336.96 Q2237.17 1337.91 2233.86 1337.91 Q2228.42 1337.91 2225.78 1334.4 Q2223.07 1330.76 2223.07 1324.4 Q2223.07 1317.59 2226.01 1314.4 Q2229.28 1310.83 2233.86 1310.83 Q2241.06 1310.83 2242.43 1318.19 Z" fill="#000000" fill-rule="evenodd" fill-opacity="1" /><path clip-path="url(#clip140)" d="M 0 0 M2264.14 1301.36 Q2261.04 1306.69 2259.53 1311.9 Q2258.03 1317.1 2258.03 1322.45 Q2258.03 1327.8 2259.53 1333.05 Q2261.06 1338.28 2264.14 1343.59 L2260.44 1343.59 Q2256.96 1338.15 2255.23 1332.89 Q2253.51 1327.64 2253.51 1322.45 Q2253.51 1317.29 2255.23 1312.06 Q2256.94 1306.83 2260.44 1301.36 L2264.14 1301.36 Z" fill="#000000" fill-rule="evenodd" fill-opacity="1" /><path clip-path="url(#clip140)" d="M 0 0 M2290.16 1311.41 L2280.78 1324.03 L2290.64 1337.34 L2285.62 1337.34 L2278.07 1327.15 L2270.53 1337.34 L2265.51 1337.34 L2275.57 1323.77 L2266.36 1311.41 L2271.38 1311.41 L2278.26 1320.65 L2285.13 1311.41 L2290.16 1311.41 Z" fill="#000000" fill-rule="evenodd" fill-opacity="1" /><path clip-path="url(#clip140)" d="M 0 0 M2294.44 1301.36 L2298.14 1301.36 Q2301.62 1306.83 2303.33 1312.06 Q2305.07 1317.29 2305.07 1322.45 Q2305.07 1327.64 2303.33 1332.89 Q2301.62 1338.15 2298.14 1343.59 L2294.44 1343.59 Q2297.52 1338.28 2299.02 1333.05 Q2300.55 1327.8 2300.55 1322.45 Q2300.55 1317.1 2299.02 1311.9 Q2297.52 1306.69 2294.44 1301.36 Z" fill="#000000" fill-rule="evenodd" fill-opacity="1" /><polyline clip-path="url(#clip140)" style="stroke:#3da44d; stroke-width:4; stroke-opacity:1; fill:none" points="
  1863.1,1380.54 2006.17,1380.54 
  "/>
<path clip-path="url(#clip140)" d="M 0 0 M2045.85 1367.86 L2039.51 1385.06 L2052.22 1385.06 L2045.85 1367.86 M2043.21 1363.26 L2048.52 1363.26 L2061.69 1397.82 L2056.83 1397.82 L2053.68 1388.95 L2038.1 1388.95 L2034.95 1397.82 L2030.02 1397.82 L2043.21 1363.26 Z" fill="#000000" fill-rule="evenodd" fill-opacity="1" /><path clip-path="url(#clip140)" d="M 0 0 M2082.68 1372.65 L2082.68 1376.68 Q2080.88 1375.76 2078.93 1375.29 Q2076.99 1374.83 2074.9 1374.83 Q2071.73 1374.83 2070.14 1375.8 Q2068.56 1376.77 2068.56 1378.72 Q2068.56 1380.2 2069.7 1381.06 Q2070.83 1381.89 2074.26 1382.65 L2075.71 1382.98 Q2080.25 1383.95 2082.15 1385.73 Q2084.07 1387.49 2084.07 1390.66 Q2084.07 1394.27 2081.2 1396.38 Q2078.35 1398.49 2073.35 1398.49 Q2071.27 1398.49 2069 1398.07 Q2066.76 1397.68 2064.26 1396.87 L2064.26 1392.47 Q2066.62 1393.7 2068.91 1394.32 Q2071.2 1394.92 2073.45 1394.92 Q2076.46 1394.92 2078.08 1393.9 Q2079.7 1392.86 2079.7 1390.99 Q2079.7 1389.25 2078.52 1388.32 Q2077.36 1387.4 2073.4 1386.54 L2071.92 1386.2 Q2067.96 1385.36 2066.2 1383.65 Q2064.44 1381.91 2064.44 1378.9 Q2064.44 1375.25 2067.03 1373.26 Q2069.63 1371.26 2074.39 1371.26 Q2076.76 1371.26 2078.84 1371.61 Q2080.92 1371.96 2082.68 1372.65 Z" fill="#000000" fill-rule="evenodd" fill-opacity="1" /><path clip-path="url(#clip140)" d="M 0 0 M2099.33 1400.22 Q2097.52 1404.85 2095.81 1406.26 Q2094.09 1407.68 2091.22 1407.68 L2087.82 1407.68 L2087.82 1404.11 L2090.32 1404.11 Q2092.08 1404.11 2093.05 1403.28 Q2094.02 1402.44 2095.21 1399.34 L2095.97 1397.4 L2085.48 1371.89 L2090 1371.89 L2098.1 1392.17 L2106.2 1371.89 L2110.71 1371.89 L2099.33 1400.22 Z" fill="#000000" fill-rule="evenodd" fill-opacity="1" /><path clip-path="url(#clip140)" d="M 0 0 M2135.37 1376.87 Q2136.96 1374 2139.19 1372.63 Q2141.41 1371.26 2144.42 1371.26 Q2148.47 1371.26 2150.67 1374.11 Q2152.87 1376.94 2152.87 1382.17 L2152.87 1397.82 L2148.58 1397.82 L2148.58 1382.31 Q2148.58 1378.58 2147.26 1376.77 Q2145.95 1374.97 2143.24 1374.97 Q2139.93 1374.97 2138.01 1377.17 Q2136.08 1379.37 2136.08 1383.16 L2136.08 1397.82 L2131.8 1397.82 L2131.8 1382.31 Q2131.8 1378.56 2130.48 1376.77 Q2129.16 1374.97 2126.41 1374.97 Q2123.14 1374.97 2121.22 1377.19 Q2119.3 1379.39 2119.3 1383.16 L2119.3 1397.82 L2115.02 1397.82 L2115.02 1371.89 L2119.3 1371.89 L2119.3 1375.92 Q2120.76 1373.53 2122.8 1372.4 Q2124.83 1371.26 2127.64 1371.26 Q2130.46 1371.26 2132.43 1372.7 Q2134.42 1374.13 2135.37 1376.87 Z" fill="#000000" fill-rule="evenodd" fill-opacity="1" /><path clip-path="url(#clip140)" d="M 0 0 M2161.45 1393.93 L2161.45 1407.68 L2157.17 1407.68 L2157.17 1371.89 L2161.45 1371.89 L2161.45 1375.82 Q2162.8 1373.51 2164.83 1372.4 Q2166.89 1371.26 2169.74 1371.26 Q2174.46 1371.26 2177.4 1375.01 Q2180.37 1378.76 2180.37 1384.88 Q2180.37 1390.99 2177.4 1394.74 Q2174.46 1398.49 2169.74 1398.49 Q2166.89 1398.49 2164.83 1397.38 Q2162.8 1396.24 2161.45 1393.93 M2175.95 1384.88 Q2175.95 1380.18 2174 1377.51 Q2172.08 1374.83 2168.7 1374.83 Q2165.32 1374.83 2163.38 1377.51 Q2161.45 1380.18 2161.45 1384.88 Q2161.45 1389.57 2163.38 1392.26 Q2165.32 1394.92 2168.7 1394.92 Q2172.08 1394.92 2174 1392.26 Q2175.95 1389.57 2175.95 1384.88 Z" fill="#000000" fill-rule="evenodd" fill-opacity="1" /><path clip-path="url(#clip140)" d="M 0 0 M2189.05 1364.53 L2189.05 1371.89 L2197.82 1371.89 L2197.82 1375.2 L2189.05 1375.2 L2189.05 1389.27 Q2189.05 1392.45 2189.9 1393.35 Q2190.78 1394.25 2193.45 1394.25 L2197.82 1394.25 L2197.82 1397.82 L2193.45 1397.82 Q2188.51 1397.82 2186.64 1395.99 Q2184.76 1394.13 2184.76 1389.27 L2184.76 1375.2 L2181.64 1375.2 L2181.64 1371.89 L2184.76 1371.89 L2184.76 1364.53 L2189.05 1364.53 Z" fill="#000000" fill-rule="evenodd" fill-opacity="1" /><path clip-path="url(#clip140)" d="M 0 0 M2212.33 1374.88 Q2208.91 1374.88 2206.92 1377.56 Q2204.93 1380.22 2204.93 1384.88 Q2204.93 1389.53 2206.89 1392.21 Q2208.89 1394.88 2212.33 1394.88 Q2215.74 1394.88 2217.73 1392.19 Q2219.72 1389.51 2219.72 1384.88 Q2219.72 1380.27 2217.73 1377.58 Q2215.74 1374.88 2212.33 1374.88 M2212.33 1371.26 Q2217.89 1371.26 2221.06 1374.88 Q2224.23 1378.49 2224.23 1384.88 Q2224.23 1391.24 2221.06 1394.88 Q2217.89 1398.49 2212.33 1398.49 Q2206.76 1398.49 2203.58 1394.88 Q2200.44 1391.24 2200.44 1384.88 Q2200.44 1378.49 2203.58 1374.88 Q2206.76 1371.26 2212.33 1371.26 Z" fill="#000000" fill-rule="evenodd" fill-opacity="1" /><path clip-path="url(#clip140)" d="M 0 0 M2232.91 1364.53 L2232.91 1371.89 L2241.69 1371.89 L2241.69 1375.2 L2232.91 1375.2 L2232.91 1389.27 Q2232.91 1392.45 2233.77 1393.35 Q2234.65 1394.25 2237.31 1394.25 L2241.69 1394.25 L2241.69 1397.82 L2237.31 1397.82 Q2232.38 1397.82 2230.51 1395.99 Q2228.63 1394.13 2228.63 1389.27 L2228.63 1375.2 L2225.51 1375.2 L2225.51 1371.89 L2228.63 1371.89 L2228.63 1364.53 L2232.91 1364.53 Z" fill="#000000" fill-rule="evenodd" fill-opacity="1" /><path clip-path="url(#clip140)" d="M 0 0 M2246.15 1371.89 L2250.41 1371.89 L2250.41 1397.82 L2246.15 1397.82 L2246.15 1371.89 M2246.15 1361.8 L2250.41 1361.8 L2250.41 1367.19 L2246.15 1367.19 L2246.15 1361.8 Z" fill="#000000" fill-rule="evenodd" fill-opacity="1" /><path clip-path="url(#clip140)" d="M 0 0 M2273.54 1372.88 L2273.54 1376.87 Q2271.73 1375.87 2269.9 1375.38 Q2268.1 1374.88 2266.25 1374.88 Q2262.1 1374.88 2259.81 1377.51 Q2257.52 1380.13 2257.52 1384.88 Q2257.52 1389.62 2259.81 1392.26 Q2262.1 1394.88 2266.25 1394.88 Q2268.1 1394.88 2269.9 1394.39 Q2271.73 1393.88 2273.54 1392.88 L2273.54 1396.82 Q2271.76 1397.65 2269.83 1398.07 Q2267.94 1398.49 2265.78 1398.49 Q2259.93 1398.49 2256.48 1394.81 Q2253.03 1391.13 2253.03 1384.88 Q2253.03 1378.53 2256.5 1374.9 Q2260 1371.26 2266.06 1371.26 Q2268.03 1371.26 2269.9 1371.68 Q2271.78 1372.07 2273.54 1372.88 Z" fill="#000000" fill-rule="evenodd" fill-opacity="1" /></svg>
