<?xml version="1.0" encoding="utf-8"?>
<svg xmlns="http://www.w3.org/2000/svg" xmlns:xlink="http://www.w3.org/1999/xlink" width="600" height="400" viewBox="0 0 2400 1600">
<defs>
  <clipPath id="clip340">
    <rect x="0" y="0" width="2400" height="1600"/>
  </clipPath>
</defs>
<path clip-path="url(#clip340)" d="
M0 1600 L2400 1600 L2400 0 L0 0  Z
  " fill="#ffffff" fill-rule="evenodd" fill-opacity="1"/>
<defs>
  <clipPath id="clip341">
    <rect x="480" y="0" width="1681" height="1600"/>
  </clipPath>
</defs>
<path clip-path="url(#clip340)" d="
M206.667 1486.45 L1767.72 1486.45 L1767.72 123.472 L206.667 123.472  Z
  " fill="#eaeaea" fill-rule="evenodd" fill-opacity="1"/>
<defs>
  <clipPath id="clip342">
    <rect x="206" y="123" width="1562" height="1364"/>
  </clipPath>
</defs>
<polyline clip-path="url(#clip342)" style="stroke:#ffffff; stroke-width:4; stroke-opacity:1; fill:none" points="
  235.972,1486.45 235.972,123.472 
  "/>
<polyline clip-path="url(#clip342)" style="stroke:#ffffff; stroke-width:4; stroke-opacity:1; fill:none" points="
  607.864,1486.45 607.864,123.472 
  "/>
<polyline clip-path="url(#clip342)" style="stroke:#ffffff; stroke-width:4; stroke-opacity:1; fill:none" points="
  979.756,1486.45 979.756,123.472 
  "/>
<polyline clip-path="url(#clip342)" style="stroke:#ffffff; stroke-width:4; stroke-opacity:1; fill:none" points="
  1351.65,1486.45 1351.65,123.472 
  "/>
<polyline clip-path="url(#clip342)" style="stroke:#ffffff; stroke-width:4; stroke-opacity:1; fill:none" points="
  1723.54,1486.45 1723.54,123.472 
  "/>
<polyline clip-path="url(#clip342)" style="stroke:#ffffff; stroke-width:4; stroke-opacity:1; fill:none" points="
  206.667,1265.85 1767.72,1265.85 
  "/>
<polyline clip-path="url(#clip342)" style="stroke:#ffffff; stroke-width:4; stroke-opacity:1; fill:none" points="
  206.667,1017.07 1767.72,1017.07 
  "/>
<polyline clip-path="url(#clip342)" style="stroke:#ffffff; stroke-width:4; stroke-opacity:1; fill:none" points="
  206.667,768.284 1767.72,768.284 
  "/>
<polyline clip-path="url(#clip342)" style="stroke:#ffffff; stroke-width:4; stroke-opacity:1; fill:none" points="
  206.667,519.5 1767.72,519.5 
  "/>
<polyline clip-path="url(#clip342)" style="stroke:#ffffff; stroke-width:4; stroke-opacity:1; fill:none" points="
  206.667,270.716 1767.72,270.716 
  "/>
<polyline clip-path="url(#clip342)" style="stroke:#ffffff; stroke-width:2; stroke-opacity:1; fill:none" points="
  421.918,1486.45 421.918,123.472 
  "/>
<polyline clip-path="url(#clip342)" style="stroke:#ffffff; stroke-width:2; stroke-opacity:1; fill:none" points="
  793.81,1486.45 793.81,123.472 
  "/>
<polyline clip-path="url(#clip342)" style="stroke:#ffffff; stroke-width:2; stroke-opacity:1; fill:none" points="
  1165.7,1486.45 1165.7,123.472 
  "/>
<polyline clip-path="url(#clip342)" style="stroke:#ffffff; stroke-width:2; stroke-opacity:1; fill:none" points="
  1537.59,1486.45 1537.59,123.472 
  "/>
<polyline clip-path="url(#clip342)" style="stroke:#ffffff; stroke-width:2; stroke-opacity:1; fill:none" points="
  206.667,1390.24 1767.72,1390.24 
  "/>
<polyline clip-path="url(#clip342)" style="stroke:#ffffff; stroke-width:2; stroke-opacity:1; fill:none" points="
  206.667,1141.46 1767.72,1141.46 
  "/>
<polyline clip-path="url(#clip342)" style="stroke:#ffffff; stroke-width:2; stroke-opacity:1; fill:none" points="
  206.667,892.676 1767.72,892.676 
  "/>
<polyline clip-path="url(#clip342)" style="stroke:#ffffff; stroke-width:2; stroke-opacity:1; fill:none" points="
  206.667,643.892 1767.72,643.892 
  "/>
<polyline clip-path="url(#clip342)" style="stroke:#ffffff; stroke-width:2; stroke-opacity:1; fill:none" points="
  206.667,395.108 1767.72,395.108 
  "/>
<polyline clip-path="url(#clip342)" style="stroke:#ffffff; stroke-width:2; stroke-opacity:1; fill:none" points="
  206.667,146.324 1767.72,146.324 
  "/>
<polyline clip-path="url(#clip340)" style="stroke:#ffffff; stroke-width:4; stroke-opacity:1; fill:none" points="
  206.667,1486.45 1767.72,1486.45 
  "/>
<polyline clip-path="url(#clip340)" style="stroke:#ffffff; stroke-width:4; stroke-opacity:1; fill:none" points="
  206.667,1486.45 206.667,123.472 
  "/>
<polyline clip-path="url(#clip340)" style="stroke:#333333; stroke-width:4; stroke-opacity:1; fill:none" points="
  235.972,1486.45 235.972,1502.8 
  "/>
<polyline clip-path="url(#clip340)" style="stroke:#333333; stroke-width:4; stroke-opacity:1; fill:none" points="
  607.864,1486.45 607.864,1502.8 
  "/>
<polyline clip-path="url(#clip340)" style="stroke:#333333; stroke-width:4; stroke-opacity:1; fill:none" points="
  979.756,1486.45 979.756,1502.8 
  "/>
<polyline clip-path="url(#clip340)" style="stroke:#333333; stroke-width:4; stroke-opacity:1; fill:none" points="
  1351.65,1486.45 1351.65,1502.8 
  "/>
<polyline clip-path="url(#clip340)" style="stroke:#333333; stroke-width:4; stroke-opacity:1; fill:none" points="
  1723.54,1486.45 1723.54,1502.8 
  "/>
<polyline clip-path="url(#clip340)" style="stroke:#333333; stroke-width:4; stroke-opacity:1; fill:none" points="
  421.918,1486.45 421.918,1494.63 
  "/>
<polyline clip-path="url(#clip340)" style="stroke:#333333; stroke-width:4; stroke-opacity:1; fill:none" points="
  793.81,1486.45 793.81,1494.63 
  "/>
<polyline clip-path="url(#clip340)" style="stroke:#333333; stroke-width:4; stroke-opacity:1; fill:none" points="
  1165.7,1486.45 1165.7,1494.63 
  "/>
<polyline clip-path="url(#clip340)" style="stroke:#333333; stroke-width:4; stroke-opacity:1; fill:none" points="
  1537.59,1486.45 1537.59,1494.63 
  "/>
<polyline clip-path="url(#clip340)" style="stroke:#333333; stroke-width:4; stroke-opacity:1; fill:none" points="
  206.667,1265.85 187.935,1265.85 
  "/>
<polyline clip-path="url(#clip340)" style="stroke:#333333; stroke-width:4; stroke-opacity:1; fill:none" points="
  206.667,1017.07 187.935,1017.07 
  "/>
<polyline clip-path="url(#clip340)" style="stroke:#333333; stroke-width:4; stroke-opacity:1; fill:none" points="
  206.667,768.284 187.935,768.284 
  "/>
<polyline clip-path="url(#clip340)" style="stroke:#333333; stroke-width:4; stroke-opacity:1; fill:none" points="
  206.667,519.5 187.935,519.5 
  "/>
<polyline clip-path="url(#clip340)" style="stroke:#333333; stroke-width:4; stroke-opacity:1; fill:none" points="
  206.667,270.716 187.935,270.716 
  "/>
<polyline clip-path="url(#clip340)" style="stroke:#333333; stroke-width:4; stroke-opacity:1; fill:none" points="
  206.667,1390.24 197.301,1390.24 
  "/>
<polyline clip-path="url(#clip340)" style="stroke:#333333; stroke-width:4; stroke-opacity:1; fill:none" points="
  206.667,1141.46 197.301,1141.46 
  "/>
<polyline clip-path="url(#clip340)" style="stroke:#333333; stroke-width:4; stroke-opacity:1; fill:none" points="
  206.667,892.676 197.301,892.676 
  "/>
<polyline clip-path="url(#clip340)" style="stroke:#333333; stroke-width:4; stroke-opacity:1; fill:none" points="
  206.667,643.892 197.301,643.892 
  "/>
<polyline clip-path="url(#clip340)" style="stroke:#333333; stroke-width:4; stroke-opacity:1; fill:none" points="
  206.667,395.108 197.301,395.108 
  "/>
<polyline clip-path="url(#clip340)" style="stroke:#333333; stroke-width:4; stroke-opacity:1; fill:none" points="
  206.667,146.324 197.301,146.324 
  "/>
<path clip-path="url(#clip340)" d="M 0 0 M235.972 1514.44 Q232.361 1514.44 230.533 1518 Q228.727 1521.55 228.727 1528.67 Q228.727 1535.78 230.533 1539.35 Q232.361 1542.89 235.972 1542.89 Q239.607 1542.89 241.412 1539.35 Q243.241 1535.78 243.241 1528.67 Q243.241 1521.55 241.412 1518 Q239.607 1514.44 235.972 1514.44 M235.972 1510.73 Q241.783 1510.73 244.838 1515.34 Q247.917 1519.92 247.917 1528.67 Q247.917 1537.4 244.838 1542.01 Q241.783 1546.59 235.972 1546.59 Q230.162 1546.59 227.084 1542.01 Q224.028 1537.4 224.028 1528.67 Q224.028 1519.92 227.084 1515.34 Q230.162 1510.73 235.972 1510.73 Z" fill="#4c4c4c" fill-rule="evenodd" fill-opacity="1" /><path clip-path="url(#clip340)" d="M 0 0 M589.508 1541.98 L605.827 1541.98 L605.827 1545.92 L583.883 1545.92 L583.883 1541.98 Q586.545 1539.23 591.128 1534.6 Q595.735 1529.95 596.915 1528.61 Q599.161 1526.08 600.04 1524.35 Q600.943 1522.59 600.943 1520.9 Q600.943 1518.14 598.999 1516.41 Q597.077 1514.67 593.975 1514.67 Q591.776 1514.67 589.323 1515.43 Q586.892 1516.2 584.114 1517.75 L584.114 1513.03 Q586.938 1511.89 589.392 1511.31 Q591.846 1510.73 593.883 1510.73 Q599.253 1510.73 602.448 1513.42 Q605.642 1516.11 605.642 1520.6 Q605.642 1522.73 604.832 1524.65 Q604.045 1526.54 601.938 1529.14 Q601.36 1529.81 598.258 1533.03 Q595.156 1536.22 589.508 1541.98 Z" fill="#4c4c4c" fill-rule="evenodd" fill-opacity="1" /><path clip-path="url(#clip340)" d="M 0 0 M610.943 1511.36 L629.299 1511.36 L629.299 1515.3 L615.225 1515.3 L615.225 1523.77 Q616.244 1523.42 617.262 1523.26 Q618.281 1523.07 619.299 1523.07 Q625.086 1523.07 628.466 1526.24 Q631.846 1529.42 631.846 1534.83 Q631.846 1540.41 628.373 1543.51 Q624.901 1546.59 618.582 1546.59 Q616.406 1546.59 614.137 1546.22 Q611.892 1545.85 609.485 1545.11 L609.485 1540.41 Q611.568 1541.54 613.79 1542.1 Q616.012 1542.66 618.489 1542.66 Q622.494 1542.66 624.832 1540.55 Q627.17 1538.44 627.17 1534.83 Q627.17 1531.22 624.832 1529.11 Q622.494 1527.01 618.489 1527.01 Q616.614 1527.01 614.739 1527.42 Q612.887 1527.84 610.943 1528.72 L610.943 1511.36 Z" fill="#4c4c4c" fill-rule="evenodd" fill-opacity="1" /><path clip-path="url(#clip340)" d="M 0 0 M956.527 1511.36 L974.883 1511.36 L974.883 1515.3 L960.809 1515.3 L960.809 1523.77 Q961.828 1523.42 962.846 1523.26 Q963.865 1523.07 964.884 1523.07 Q970.671 1523.07 974.05 1526.24 Q977.43 1529.42 977.43 1534.83 Q977.43 1540.41 973.958 1543.51 Q970.485 1546.59 964.166 1546.59 Q961.99 1546.59 959.722 1546.22 Q957.476 1545.85 955.069 1545.11 L955.069 1540.41 Q957.152 1541.54 959.374 1542.1 Q961.597 1542.66 964.073 1542.66 Q968.078 1542.66 970.416 1540.55 Q972.754 1538.44 972.754 1534.83 Q972.754 1531.22 970.416 1529.11 Q968.078 1527.01 964.073 1527.01 Q962.198 1527.01 960.323 1527.42 Q958.472 1527.84 956.527 1528.72 L956.527 1511.36 Z" fill="#4c4c4c" fill-rule="evenodd" fill-opacity="1" /><path clip-path="url(#clip340)" d="M 0 0 M992.499 1514.44 Q988.888 1514.44 987.059 1518 Q985.254 1521.55 985.254 1528.67 Q985.254 1535.78 987.059 1539.35 Q988.888 1542.89 992.499 1542.89 Q996.133 1542.89 997.939 1539.35 Q999.768 1535.78 999.768 1528.67 Q999.768 1521.55 997.939 1518 Q996.133 1514.44 992.499 1514.44 M992.499 1510.73 Q998.309 1510.73 1001.36 1515.34 Q1004.44 1519.92 1004.44 1528.67 Q1004.44 1537.4 1001.36 1542.01 Q998.309 1546.59 992.499 1546.59 Q986.689 1546.59 983.61 1542.01 Q980.555 1537.4 980.555 1528.67 Q980.555 1519.92 983.61 1515.34 Q986.689 1510.73 992.499 1510.73 Z" fill="#4c4c4c" fill-rule="evenodd" fill-opacity="1" /><path clip-path="url(#clip340)" d="M 0 0 M1327.53 1511.36 L1349.75 1511.36 L1349.75 1513.35 L1337.2 1545.92 L1332.32 1545.92 L1344.12 1515.3 L1327.53 1515.3 L1327.53 1511.36 Z" fill="#4c4c4c" fill-rule="evenodd" fill-opacity="1" /><path clip-path="url(#clip340)" d="M 0 0 M1354.87 1511.36 L1373.22 1511.36 L1373.22 1515.3 L1359.15 1515.3 L1359.15 1523.77 Q1360.17 1523.42 1361.18 1523.26 Q1362.2 1523.07 1363.22 1523.07 Q1369.01 1523.07 1372.39 1526.24 Q1375.77 1529.42 1375.77 1534.83 Q1375.77 1540.41 1372.3 1543.51 Q1368.82 1546.59 1362.5 1546.59 Q1360.33 1546.59 1358.06 1546.22 Q1355.81 1545.85 1353.41 1545.11 L1353.41 1540.41 Q1355.49 1541.54 1357.71 1542.1 Q1359.93 1542.66 1362.41 1542.66 Q1366.42 1542.66 1368.75 1540.55 Q1371.09 1538.44 1371.09 1534.83 Q1371.09 1531.22 1368.75 1529.11 Q1366.42 1527.01 1362.41 1527.01 Q1360.54 1527.01 1358.66 1527.42 Q1356.81 1527.84 1354.87 1528.72 L1354.87 1511.36 Z" fill="#4c4c4c" fill-rule="evenodd" fill-opacity="1" /><path clip-path="url(#clip340)" d="M 0 0 M1686.91 1541.98 L1694.55 1541.98 L1694.55 1515.62 L1686.24 1517.29 L1686.24 1513.03 L1694.5 1511.36 L1699.18 1511.36 L1699.18 1541.98 L1706.82 1541.98 L1706.82 1545.92 L1686.91 1545.92 L1686.91 1541.98 Z" fill="#4c4c4c" fill-rule="evenodd" fill-opacity="1" /><path clip-path="url(#clip340)" d="M 0 0 M1721.88 1514.44 Q1718.27 1514.44 1716.44 1518 Q1714.64 1521.55 1714.64 1528.67 Q1714.64 1535.78 1716.44 1539.35 Q1718.27 1542.89 1721.88 1542.89 Q1725.52 1542.89 1727.32 1539.35 Q1729.15 1535.78 1729.15 1528.67 Q1729.15 1521.55 1727.32 1518 Q1725.52 1514.44 1721.88 1514.44 M1721.88 1510.73 Q1727.69 1510.73 1730.75 1515.34 Q1733.83 1519.92 1733.83 1528.67 Q1733.83 1537.4 1730.75 1542.01 Q1727.69 1546.59 1721.88 1546.59 Q1716.07 1546.59 1713 1542.01 Q1709.94 1537.4 1709.94 1528.67 Q1709.94 1519.92 1713 1515.34 Q1716.07 1510.73 1721.88 1510.73 Z" fill="#4c4c4c" fill-rule="evenodd" fill-opacity="1" /><path clip-path="url(#clip340)" d="M 0 0 M1748.9 1514.44 Q1745.29 1514.44 1743.46 1518 Q1741.65 1521.55 1741.65 1528.67 Q1741.65 1535.78 1743.46 1539.35 Q1745.29 1542.89 1748.9 1542.89 Q1752.53 1542.89 1754.34 1539.35 Q1756.17 1535.78 1756.17 1528.67 Q1756.17 1521.55 1754.34 1518 Q1752.53 1514.44 1748.9 1514.44 M1748.9 1510.73 Q1754.71 1510.73 1757.76 1515.34 Q1760.84 1519.92 1760.84 1528.67 Q1760.84 1537.4 1757.76 1542.01 Q1754.71 1546.59 1748.9 1546.59 Q1743.09 1546.59 1740.01 1542.01 Q1736.95 1537.4 1736.95 1528.67 Q1736.95 1519.92 1740.01 1515.34 Q1743.09 1510.73 1748.9 1510.73 Z" fill="#4c4c4c" fill-rule="evenodd" fill-opacity="1" /><path clip-path="url(#clip340)" d="M 0 0 M51.8949 1266.3 L81.5707 1266.3 L81.5707 1270.24 L51.8949 1270.24 L51.8949 1266.3 Z" fill="#4c4c4c" fill-rule="evenodd" fill-opacity="1" /><path clip-path="url(#clip340)" d="M 0 0 M96.64 1251.65 Q93.0289 1251.65 91.2002 1255.22 Q89.3947 1258.76 89.3947 1265.89 Q89.3947 1272.99 91.2002 1276.56 Q93.0289 1280.1 96.64 1280.1 Q100.274 1280.1 102.08 1276.56 Q103.909 1272.99 103.909 1265.89 Q103.909 1258.76 102.08 1255.22 Q100.274 1251.65 96.64 1251.65 M96.64 1247.95 Q102.45 1247.95 105.506 1252.55 Q108.584 1257.14 108.584 1265.89 Q108.584 1274.61 105.506 1279.22 Q102.45 1283.8 96.64 1283.8 Q90.8299 1283.8 87.7512 1279.22 Q84.6956 1274.61 84.6956 1265.89 Q84.6956 1257.14 87.7512 1252.55 Q90.8299 1247.95 96.64 1247.95 Z" fill="#4c4c4c" fill-rule="evenodd" fill-opacity="1" /><path clip-path="url(#clip340)" d="M 0 0 M113.654 1277.25 L118.538 1277.25 L118.538 1283.13 L113.654 1283.13 L113.654 1277.25 Z" fill="#4c4c4c" fill-rule="evenodd" fill-opacity="1" /><path clip-path="url(#clip340)" d="M 0 0 M122.427 1248.57 L144.649 1248.57 L144.649 1250.56 L132.103 1283.13 L127.219 1283.13 L139.024 1252.51 L122.427 1252.51 L122.427 1248.57 Z" fill="#4c4c4c" fill-rule="evenodd" fill-opacity="1" /><path clip-path="url(#clip340)" d="M 0 0 M149.765 1248.57 L168.121 1248.57 L168.121 1252.51 L154.047 1252.51 L154.047 1260.98 Q155.066 1260.63 156.084 1260.47 Q157.103 1260.29 158.121 1260.29 Q163.908 1260.29 167.288 1263.46 Q170.667 1266.63 170.667 1272.04 Q170.667 1277.62 167.195 1280.73 Q163.723 1283.8 157.404 1283.8 Q155.228 1283.8 152.959 1283.43 Q150.714 1283.06 148.306 1282.32 L148.306 1277.62 Q150.39 1278.76 152.612 1279.31 Q154.834 1279.87 157.311 1279.87 Q161.316 1279.87 163.654 1277.76 Q165.992 1275.66 165.992 1272.04 Q165.992 1268.43 163.654 1266.33 Q161.316 1264.22 157.311 1264.22 Q155.436 1264.22 153.561 1264.64 Q151.709 1265.05 149.765 1265.93 L149.765 1248.57 Z" fill="#4c4c4c" fill-rule="evenodd" fill-opacity="1" /><path clip-path="url(#clip340)" d="M 0 0 M50.9921 1017.52 L80.6679 1017.52 L80.6679 1021.45 L50.9921 1021.45 L50.9921 1017.52 Z" fill="#4c4c4c" fill-rule="evenodd" fill-opacity="1" /><path clip-path="url(#clip340)" d="M 0 0 M95.7373 1002.87 Q92.1262 1002.87 90.2975 1006.43 Q88.4919 1009.97 88.4919 1017.1 Q88.4919 1024.21 90.2975 1027.77 Q92.1262 1031.32 95.7373 1031.32 Q99.3715 1031.32 101.177 1027.77 Q103.006 1024.21 103.006 1017.1 Q103.006 1009.97 101.177 1006.43 Q99.3715 1002.87 95.7373 1002.87 M95.7373 999.163 Q101.547 999.163 104.603 1003.77 Q107.682 1008.35 107.682 1017.1 Q107.682 1025.83 104.603 1030.44 Q101.547 1035.02 95.7373 1035.02 Q89.9271 1035.02 86.8484 1030.44 Q83.7929 1025.83 83.7929 1017.1 Q83.7929 1008.35 86.8484 1003.77 Q89.9271 999.163 95.7373 999.163 Z" fill="#4c4c4c" fill-rule="evenodd" fill-opacity="1" /><path clip-path="url(#clip340)" d="M 0 0 M112.751 1028.47 L117.635 1028.47 L117.635 1034.35 L112.751 1034.35 L112.751 1028.47 Z" fill="#4c4c4c" fill-rule="evenodd" fill-opacity="1" /><path clip-path="url(#clip340)" d="M 0 0 M122.751 999.788 L141.107 999.788 L141.107 1003.72 L127.033 1003.72 L127.033 1012.2 Q128.052 1011.85 129.07 1011.69 Q130.089 1011.5 131.107 1011.5 Q136.894 1011.5 140.274 1014.67 Q143.654 1017.84 143.654 1023.26 Q143.654 1028.84 140.181 1031.94 Q136.709 1035.02 130.39 1035.02 Q128.214 1035.02 125.945 1034.65 Q123.7 1034.28 121.293 1033.54 L121.293 1028.84 Q123.376 1029.97 125.598 1030.53 Q127.82 1031.08 130.297 1031.08 Q134.302 1031.08 136.64 1028.98 Q138.978 1026.87 138.978 1023.26 Q138.978 1019.65 136.64 1017.54 Q134.302 1015.44 130.297 1015.44 Q128.422 1015.44 126.547 1015.85 Q124.695 1016.27 122.751 1017.15 L122.751 999.788 Z" fill="#4c4c4c" fill-rule="evenodd" fill-opacity="1" /><path clip-path="url(#clip340)" d="M 0 0 M158.723 1002.87 Q155.112 1002.87 153.283 1006.43 Q151.478 1009.97 151.478 1017.1 Q151.478 1024.21 153.283 1027.77 Q155.112 1031.32 158.723 1031.32 Q162.357 1031.32 164.163 1027.77 Q165.992 1024.21 165.992 1017.1 Q165.992 1009.97 164.163 1006.43 Q162.357 1002.87 158.723 1002.87 M158.723 999.163 Q164.533 999.163 167.589 1003.77 Q170.667 1008.35 170.667 1017.1 Q170.667 1025.83 167.589 1030.44 Q164.533 1035.02 158.723 1035.02 Q152.913 1035.02 149.834 1030.44 Q146.779 1025.83 146.779 1017.1 Q146.779 1008.35 149.834 1003.77 Q152.913 999.163 158.723 999.163 Z" fill="#4c4c4c" fill-rule="evenodd" fill-opacity="1" /><path clip-path="url(#clip340)" d="M 0 0 M52.5893 768.736 L82.2651 768.736 L82.2651 772.671 L52.5893 772.671 L52.5893 768.736 Z" fill="#4c4c4c" fill-rule="evenodd" fill-opacity="1" /><path clip-path="url(#clip340)" d="M 0 0 M97.3345 754.083 Q93.7234 754.083 91.8947 757.648 Q90.0891 761.189 90.0891 768.319 Q90.0891 775.425 91.8947 778.99 Q93.7234 782.532 97.3345 782.532 Q100.969 782.532 102.774 778.99 Q104.603 775.425 104.603 768.319 Q104.603 761.189 102.774 757.648 Q100.969 754.083 97.3345 754.083 M97.3345 750.379 Q103.145 750.379 106.2 754.986 Q109.279 759.569 109.279 768.319 Q109.279 777.046 106.2 781.652 Q103.145 786.236 97.3345 786.236 Q91.5243 786.236 88.4456 781.652 Q85.3901 777.046 85.3901 768.319 Q85.3901 759.569 88.4456 754.986 Q91.5243 750.379 97.3345 750.379 Z" fill="#4c4c4c" fill-rule="evenodd" fill-opacity="1" /><path clip-path="url(#clip340)" d="M 0 0 M114.348 779.685 L119.233 779.685 L119.233 785.564 L114.348 785.564 L114.348 779.685 Z" fill="#4c4c4c" fill-rule="evenodd" fill-opacity="1" /><path clip-path="url(#clip340)" d="M 0 0 M128.33 781.629 L144.649 781.629 L144.649 785.564 L122.705 785.564 L122.705 781.629 Q125.367 778.874 129.95 774.245 Q134.556 769.592 135.737 768.25 Q137.982 765.726 138.862 763.99 Q139.765 762.231 139.765 760.541 Q139.765 757.787 137.82 756.051 Q135.899 754.314 132.797 754.314 Q130.598 754.314 128.144 755.078 Q125.714 755.842 122.936 757.393 L122.936 752.671 Q125.76 751.537 128.214 750.958 Q130.668 750.379 132.705 750.379 Q138.075 750.379 141.269 753.064 Q144.464 755.75 144.464 760.24 Q144.464 762.37 143.654 764.291 Q142.867 766.189 140.76 768.782 Q140.181 769.453 137.08 772.671 Q133.978 775.865 128.33 781.629 Z" fill="#4c4c4c" fill-rule="evenodd" fill-opacity="1" /><path clip-path="url(#clip340)" d="M 0 0 M149.765 751.004 L168.121 751.004 L168.121 754.939 L154.047 754.939 L154.047 763.412 Q155.066 763.064 156.084 762.902 Q157.103 762.717 158.121 762.717 Q163.908 762.717 167.288 765.888 Q170.667 769.06 170.667 774.476 Q170.667 780.055 167.195 783.157 Q163.723 786.236 157.404 786.236 Q155.228 786.236 152.959 785.865 Q150.714 785.495 148.306 784.754 L148.306 780.055 Q150.39 781.189 152.612 781.745 Q154.834 782.3 157.311 782.3 Q161.316 782.3 163.654 780.194 Q165.992 778.087 165.992 774.476 Q165.992 770.865 163.654 768.759 Q161.316 766.652 157.311 766.652 Q155.436 766.652 153.561 767.069 Q151.709 767.486 149.765 768.365 L149.765 751.004 Z" fill="#4c4c4c" fill-rule="evenodd" fill-opacity="1" /><path clip-path="url(#clip340)" d="M 0 0 M94.7419 505.299 Q91.1308 505.299 89.3021 508.864 Q87.4966 512.405 87.4966 519.535 Q87.4966 526.641 89.3021 530.206 Q91.1308 533.748 94.7419 533.748 Q98.3761 533.748 100.182 530.206 Q102.01 526.641 102.01 519.535 Q102.01 512.405 100.182 508.864 Q98.3761 505.299 94.7419 505.299 M94.7419 501.595 Q100.552 501.595 103.608 506.202 Q106.686 510.785 106.686 519.535 Q106.686 528.262 103.608 532.868 Q100.552 537.451 94.7419 537.451 Q88.9317 537.451 85.8531 532.868 Q82.7975 528.262 82.7975 519.535 Q82.7975 510.785 85.8531 506.202 Q88.9317 501.595 94.7419 501.595 Z" fill="#4c4c4c" fill-rule="evenodd" fill-opacity="1" /><path clip-path="url(#clip340)" d="M 0 0 M111.756 530.9 L116.64 530.9 L116.64 536.78 L111.756 536.78 L111.756 530.9 Z" fill="#4c4c4c" fill-rule="evenodd" fill-opacity="1" /><path clip-path="url(#clip340)" d="M 0 0 M131.709 505.299 Q128.098 505.299 126.27 508.864 Q124.464 512.405 124.464 519.535 Q124.464 526.641 126.27 530.206 Q128.098 533.748 131.709 533.748 Q135.344 533.748 137.149 530.206 Q138.978 526.641 138.978 519.535 Q138.978 512.405 137.149 508.864 Q135.344 505.299 131.709 505.299 M131.709 501.595 Q137.519 501.595 140.575 506.202 Q143.654 510.785 143.654 519.535 Q143.654 528.262 140.575 532.868 Q137.519 537.451 131.709 537.451 Q125.899 537.451 122.82 532.868 Q119.765 528.262 119.765 519.535 Q119.765 510.785 122.82 506.202 Q125.899 501.595 131.709 501.595 Z" fill="#4c4c4c" fill-rule="evenodd" fill-opacity="1" /><path clip-path="url(#clip340)" d="M 0 0 M158.723 505.299 Q155.112 505.299 153.283 508.864 Q151.478 512.405 151.478 519.535 Q151.478 526.641 153.283 530.206 Q155.112 533.748 158.723 533.748 Q162.357 533.748 164.163 530.206 Q165.992 526.641 165.992 519.535 Q165.992 512.405 164.163 508.864 Q162.357 505.299 158.723 505.299 M158.723 501.595 Q164.533 501.595 167.589 506.202 Q170.667 510.785 170.667 519.535 Q170.667 528.262 167.589 532.868 Q164.533 537.451 158.723 537.451 Q152.913 537.451 149.834 532.868 Q146.779 528.262 146.779 519.535 Q146.779 510.785 149.834 506.202 Q152.913 501.595 158.723 501.595 Z" fill="#4c4c4c" fill-rule="evenodd" fill-opacity="1" /><path clip-path="url(#clip340)" d="M 0 0 M97.3345 256.515 Q93.7234 256.515 91.8947 260.079 Q90.0891 263.621 90.0891 270.751 Q90.0891 277.857 91.8947 281.422 Q93.7234 284.963 97.3345 284.963 Q100.969 284.963 102.774 281.422 Q104.603 277.857 104.603 270.751 Q104.603 263.621 102.774 260.079 Q100.969 256.515 97.3345 256.515 M97.3345 252.811 Q103.145 252.811 106.2 257.417 Q109.279 262.001 109.279 270.751 Q109.279 279.477 106.2 284.084 Q103.145 288.667 97.3345 288.667 Q91.5243 288.667 88.4456 284.084 Q85.3901 279.477 85.3901 270.751 Q85.3901 262.001 88.4456 257.417 Q91.5243 252.811 97.3345 252.811 Z" fill="#4c4c4c" fill-rule="evenodd" fill-opacity="1" /><path clip-path="url(#clip340)" d="M 0 0 M114.348 282.116 L119.233 282.116 L119.233 287.996 L114.348 287.996 L114.348 282.116 Z" fill="#4c4c4c" fill-rule="evenodd" fill-opacity="1" /><path clip-path="url(#clip340)" d="M 0 0 M128.33 284.061 L144.649 284.061 L144.649 287.996 L122.705 287.996 L122.705 284.061 Q125.367 281.306 129.95 276.676 Q134.556 272.024 135.737 270.681 Q137.982 268.158 138.862 266.422 Q139.765 264.663 139.765 262.973 Q139.765 260.218 137.82 258.482 Q135.899 256.746 132.797 256.746 Q130.598 256.746 128.144 257.51 Q125.714 258.274 122.936 259.825 L122.936 255.103 Q125.76 253.968 128.214 253.39 Q130.668 252.811 132.705 252.811 Q138.075 252.811 141.269 255.496 Q144.464 258.181 144.464 262.672 Q144.464 264.802 143.654 266.723 Q142.867 268.621 140.76 271.214 Q140.181 271.885 137.08 275.102 Q133.978 278.297 128.33 284.061 Z" fill="#4c4c4c" fill-rule="evenodd" fill-opacity="1" /><path clip-path="url(#clip340)" d="M 0 0 M149.765 253.436 L168.121 253.436 L168.121 257.371 L154.047 257.371 L154.047 265.843 Q155.066 265.496 156.084 265.334 Q157.103 265.149 158.121 265.149 Q163.908 265.149 167.288 268.32 Q170.667 271.491 170.667 276.908 Q170.667 282.487 167.195 285.588 Q163.723 288.667 157.404 288.667 Q155.228 288.667 152.959 288.297 Q150.714 287.926 148.306 287.186 L148.306 282.487 Q150.39 283.621 152.612 284.176 Q154.834 284.732 157.311 284.732 Q161.316 284.732 163.654 282.626 Q165.992 280.519 165.992 276.908 Q165.992 273.297 163.654 271.19 Q161.316 269.084 157.311 269.084 Q155.436 269.084 153.561 269.501 Q151.709 269.917 149.765 270.797 L149.765 253.436 Z" fill="#4c4c4c" fill-rule="evenodd" fill-opacity="1" /><path clip-path="url(#clip340)" d="M 0 0 M569.688 45.1919 L569.688 72.576 L562.234 72.576 L562.234 45.4349 Q562.234 38.994 559.722 35.7938 Q557.211 32.5936 552.188 32.5936 Q546.152 32.5936 542.668 36.4419 Q539.184 40.2903 539.184 46.9338 L539.184 72.576 L531.69 72.576 L531.69 27.2059 L539.184 27.2059 L539.184 34.2544 Q541.858 30.163 545.463 28.1376 Q549.109 26.1121 553.848 26.1121 Q561.667 26.1121 565.677 30.9732 Q569.688 35.7938 569.688 45.1919 Z" fill="#000000" fill-rule="evenodd" fill-opacity="1" /><path clip-path="url(#clip340)" d="M 0 0 M595.087 32.4315 Q589.091 32.4315 585.608 37.1306 Q582.124 41.7891 582.124 49.9314 Q582.124 58.0738 585.567 62.7728 Q589.051 67.4314 595.087 67.4314 Q601.042 67.4314 604.525 62.7323 Q608.009 58.0333 608.009 49.9314 Q608.009 41.8701 604.525 37.1711 Q601.042 32.4315 595.087 32.4315 M595.087 26.1121 Q604.809 26.1121 610.359 32.4315 Q615.908 38.7509 615.908 49.9314 Q615.908 61.0714 610.359 67.4314 Q604.809 73.7508 595.087 73.7508 Q585.324 73.7508 579.774 67.4314 Q574.265 61.0714 574.265 49.9314 Q574.265 38.7509 579.774 32.4315 Q585.324 26.1121 595.087 26.1121 Z" fill="#000000" fill-rule="evenodd" fill-opacity="1" /><path clip-path="url(#clip340)" d="M 0 0 M632.233 18.8205 L632.233 65.8515 L642.118 65.8515 Q654.635 65.8515 660.428 60.1802 Q666.261 54.509 666.261 42.2752 Q666.261 30.1225 660.428 24.4918 Q654.635 18.8205 642.118 18.8205 L632.233 18.8205 M624.051 12.096 L640.862 12.096 Q658.443 12.096 666.666 19.4281 Q674.89 26.7198 674.89 42.2752 Q674.89 57.9117 666.626 65.2439 Q658.362 72.576 640.862 72.576 L624.051 72.576 L624.051 12.096 Z" fill="#000000" fill-rule="evenodd" fill-opacity="1" /><path clip-path="url(#clip340)" d="M 0 0 M721.515 48.0275 L721.515 51.6733 L687.245 51.6733 Q687.731 59.3701 691.863 63.421 Q696.035 67.4314 703.448 67.4314 Q707.742 67.4314 711.753 66.3781 Q715.804 65.3249 719.774 63.2184 L719.774 70.267 Q715.763 71.9684 711.55 72.8596 Q707.337 73.7508 703.003 73.7508 Q692.146 73.7508 685.786 67.4314 Q679.467 61.1119 679.467 50.3365 Q679.467 39.1965 685.462 32.6746 Q691.498 26.1121 701.706 26.1121 Q710.862 26.1121 716.168 32.0264 Q721.515 37.9003 721.515 48.0275 M714.062 45.84 Q713.981 39.7232 710.618 36.0774 Q707.297 32.4315 701.788 32.4315 Q695.549 32.4315 691.782 35.9558 Q688.055 39.4801 687.488 45.8805 L714.062 45.84 Z" fill="#000000" fill-rule="evenodd" fill-opacity="1" /><path clip-path="url(#clip340)" d="M 0 0 M764.658 35.9153 Q767.453 30.8922 771.342 28.5022 Q775.23 26.1121 780.497 26.1121 Q787.586 26.1121 791.434 31.0947 Q795.282 36.0368 795.282 45.1919 L795.282 72.576 L787.788 72.576 L787.788 45.4349 Q787.788 38.913 785.479 35.7533 Q783.17 32.5936 778.431 32.5936 Q772.638 32.5936 769.276 36.4419 Q765.913 40.2903 765.913 46.9338 L765.913 72.576 L758.419 72.576 L758.419 45.4349 Q758.419 38.8725 756.11 35.7533 Q753.801 32.5936 748.981 32.5936 Q743.269 32.5936 739.907 36.4824 Q736.544 40.3308 736.544 46.9338 L736.544 72.576 L729.05 72.576 L729.05 27.2059 L736.544 27.2059 L736.544 34.2544 Q739.096 30.082 742.661 28.0971 Q746.226 26.1121 751.128 26.1121 Q756.07 26.1121 759.513 28.6237 Q762.997 31.1352 764.658 35.9153 Z" fill="#000000" fill-rule="evenodd" fill-opacity="1" /><path clip-path="url(#clip340)" d="M 0 0 M820.682 32.4315 Q814.686 32.4315 811.202 37.1306 Q807.719 41.7891 807.719 49.9314 Q807.719 58.0738 811.162 62.7728 Q814.646 67.4314 820.682 67.4314 Q826.636 67.4314 830.12 62.7323 Q833.604 58.0333 833.604 49.9314 Q833.604 41.8701 830.12 37.1711 Q826.636 32.4315 820.682 32.4315 M820.682 26.1121 Q830.404 26.1121 835.953 32.4315 Q841.503 38.7509 841.503 49.9314 Q841.503 61.0714 835.953 67.4314 Q830.404 73.7508 820.682 73.7508 Q810.919 73.7508 805.369 67.4314 Q799.86 61.0714 799.86 49.9314 Q799.86 38.7509 805.369 32.4315 Q810.919 26.1121 820.682 26.1121 Z" fill="#000000" fill-rule="evenodd" fill-opacity="1" /><path clip-path="url(#clip340)" d="M 0 0 M879.177 49.3643 Q879.177 41.2625 875.814 36.8065 Q872.493 32.3505 866.457 32.3505 Q860.461 32.3505 857.099 36.8065 Q853.777 41.2625 853.777 49.3643 Q853.777 57.4256 857.099 61.8816 Q860.461 66.3376 866.457 66.3376 Q872.493 66.3376 875.814 61.8816 Q879.177 57.4256 879.177 49.3643 M886.63 66.9452 Q886.63 78.5308 881.486 84.1616 Q876.341 89.8329 865.728 89.8329 Q861.798 89.8329 858.314 89.2252 Q854.831 88.6581 851.549 87.4428 L851.549 80.1917 Q854.831 81.9741 858.031 82.8248 Q861.231 83.6755 864.553 83.6755 Q871.885 83.6755 875.531 79.8271 Q879.177 76.0193 879.177 68.282 L879.177 64.5957 Q876.868 68.6061 873.262 70.5911 Q869.657 72.576 864.634 72.576 Q856.289 72.576 851.185 66.2161 Q846.081 59.8562 846.081 49.3643 Q846.081 38.832 851.185 32.472 Q856.289 26.1121 864.634 26.1121 Q869.657 26.1121 873.262 28.0971 Q876.868 30.082 879.177 34.0924 L879.177 27.2059 L886.63 27.2059 L886.63 66.9452 Z" fill="#000000" fill-rule="evenodd" fill-opacity="1" /><path clip-path="url(#clip340)" d="M 0 0 M928.922 86.3491 L928.922 92.1419 L885.82 92.1419 L885.82 86.3491 L928.922 86.3491 Z" fill="#000000" fill-rule="evenodd" fill-opacity="1" /><path clip-path="url(#clip340)" d="M 0 0 M955.293 17.4837 Q948.974 17.4837 945.773 23.7221 Q942.614 29.92 942.614 42.3968 Q942.614 54.833 945.773 61.0714 Q948.974 67.2693 955.293 67.2693 Q961.653 67.2693 964.813 61.0714 Q968.013 54.833 968.013 42.3968 Q968.013 29.92 964.813 23.7221 Q961.653 17.4837 955.293 17.4837 M955.293 11.0023 Q965.461 11.0023 970.808 19.0636 Q976.196 27.0843 976.196 42.3968 Q976.196 57.6687 970.808 65.73 Q965.461 73.7508 955.293 73.7508 Q945.125 73.7508 939.738 65.73 Q934.39 57.6687 934.39 42.3968 Q934.39 27.0843 939.738 19.0636 Q945.125 11.0023 955.293 11.0023 Z" fill="#000000" fill-rule="evenodd" fill-opacity="1" /><path clip-path="url(#clip340)" d="M 0 0 M985.067 62.2867 L993.615 62.2867 L993.615 72.576 L985.067 72.576 L985.067 62.2867 Z" fill="#000000" fill-rule="evenodd" fill-opacity="1" /><path clip-path="url(#clip340)" d="M 0 0 M1024.97 19.2256 L1004.31 51.5113 L1024.97 51.5113 L1024.97 19.2256 M1022.82 12.096 L1033.11 12.096 L1033.11 51.5113 L1041.74 51.5113 L1041.74 58.3168 L1033.11 58.3168 L1033.11 72.576 L1024.97 72.576 L1024.97 58.3168 L997.666 58.3168 L997.666 50.4176 L1022.82 12.096 Z" fill="#000000" fill-rule="evenodd" fill-opacity="1" /><path clip-path="url(#clip340)" d="M 0 0 M1084.03 86.3491 L1084.03 92.1419 L1040.93 92.1419 L1040.93 86.3491 L1084.03 86.3491 Z" fill="#000000" fill-rule="evenodd" fill-opacity="1" /><path clip-path="url(#clip340)" d="M 0 0 M1110.4 17.4837 Q1104.08 17.4837 1100.88 23.7221 Q1097.72 29.92 1097.72 42.3968 Q1097.72 54.833 1100.88 61.0714 Q1104.08 67.2693 1110.4 67.2693 Q1116.76 67.2693 1119.92 61.0714 Q1123.12 54.833 1123.12 42.3968 Q1123.12 29.92 1119.92 23.7221 Q1116.76 17.4837 1110.4 17.4837 M1110.4 11.0023 Q1120.57 11.0023 1125.92 19.0636 Q1131.3 27.0843 1131.3 42.3968 Q1131.3 57.6687 1125.92 65.73 Q1120.57 73.7508 1110.4 73.7508 Q1100.23 73.7508 1094.85 65.73 Q1089.5 57.6687 1089.5 42.3968 Q1089.5 27.0843 1094.85 19.0636 Q1100.23 11.0023 1110.4 11.0023 Z" fill="#000000" fill-rule="evenodd" fill-opacity="1" /><path clip-path="url(#clip340)" d="M 0 0 M1140.18 62.2867 L1148.72 62.2867 L1148.72 72.576 L1140.18 72.576 L1140.18 62.2867 Z" fill="#000000" fill-rule="evenodd" fill-opacity="1" /><path clip-path="url(#clip340)" d="M 0 0 M1182.39 39.9662 Q1188.26 41.222 1191.54 45.1919 Q1194.86 49.1618 1194.86 54.9951 Q1194.86 63.9476 1188.71 68.8492 Q1182.55 73.7508 1171.21 73.7508 Q1167.4 73.7508 1163.35 72.9811 Q1159.34 72.2519 1155.04 70.7531 L1155.04 62.8538 Q1158.45 64.8388 1162.5 65.8515 Q1166.55 66.8642 1170.96 66.8642 Q1178.66 66.8642 1182.67 63.826 Q1186.72 60.7879 1186.72 54.9951 Q1186.72 49.6479 1182.95 46.6502 Q1179.23 43.612 1172.54 43.612 L1165.49 43.612 L1165.49 36.8875 L1172.87 36.8875 Q1178.9 36.8875 1182.1 34.4975 Q1185.3 32.067 1185.3 27.5299 Q1185.3 22.8714 1181.98 20.4004 Q1178.7 17.8888 1172.54 17.8888 Q1169.18 17.8888 1165.33 18.618 Q1161.48 19.3471 1156.87 20.8865 L1156.87 13.5948 Q1161.52 12.2985 1165.58 11.6504 Q1169.67 11.0023 1173.27 11.0023 Q1182.59 11.0023 1188.02 15.2557 Q1193.45 19.4686 1193.45 26.6793 Q1193.45 31.7024 1190.57 35.1862 Q1187.69 38.6294 1182.39 39.9662 Z" fill="#000000" fill-rule="evenodd" fill-opacity="1" /><path clip-path="url(#clip340)" d="M 0 0 M1237.16 86.3491 L1237.16 92.1419 L1194.05 92.1419 L1194.05 86.3491 L1237.16 86.3491 Z" fill="#000000" fill-rule="evenodd" fill-opacity="1" /><path clip-path="url(#clip340)" d="M 0 0 M1263.53 17.4837 Q1257.21 17.4837 1254.01 23.7221 Q1250.85 29.92 1250.85 42.3968 Q1250.85 54.833 1254.01 61.0714 Q1257.21 67.2693 1263.53 67.2693 Q1269.89 67.2693 1273.05 61.0714 Q1276.25 54.833 1276.25 42.3968 Q1276.25 29.92 1273.05 23.7221 Q1269.89 17.4837 1263.53 17.4837 M1263.53 11.0023 Q1273.69 11.0023 1279.04 19.0636 Q1284.43 27.0843 1284.43 42.3968 Q1284.43 57.6687 1279.04 65.73 Q1273.69 73.7508 1263.53 73.7508 Q1253.36 73.7508 1247.97 65.73 Q1242.62 57.6687 1242.62 42.3968 Q1242.62 27.0843 1247.97 19.0636 Q1253.36 11.0023 1263.53 11.0023 Z" fill="#000000" fill-rule="evenodd" fill-opacity="1" /><path clip-path="url(#clip340)" d="M 0 0 M1293.3 62.2867 L1301.85 62.2867 L1301.85 72.576 L1293.3 72.576 L1293.3 62.2867 Z" fill="#000000" fill-rule="evenodd" fill-opacity="1" /><path clip-path="url(#clip340)" d="M 0 0 M1310.96 71.3202 L1310.96 63.8666 Q1314.04 65.3249 1317.2 66.0946 Q1320.36 66.8642 1323.4 66.8642 Q1331.5 66.8642 1335.75 61.436 Q1340.05 55.9673 1340.66 44.8678 Q1338.31 48.3516 1334.7 50.215 Q1331.1 52.0784 1326.72 52.0784 Q1317.65 52.0784 1312.34 46.6097 Q1307.07 41.1005 1307.07 31.5808 Q1307.07 22.2638 1312.58 16.633 Q1318.09 11.0023 1327.25 11.0023 Q1337.74 11.0023 1343.25 19.0636 Q1348.8 27.0843 1348.8 42.3968 Q1348.8 56.6965 1341.99 65.2439 Q1335.23 73.7508 1323.76 73.7508 Q1320.68 73.7508 1317.52 73.1431 Q1314.37 72.5355 1310.96 71.3202 M1327.25 45.678 Q1332.76 45.678 1335.96 41.9107 Q1339.2 38.1433 1339.2 31.5808 Q1339.2 25.0589 1335.96 21.2916 Q1332.76 17.4837 1327.25 17.4837 Q1321.74 17.4837 1318.5 21.2916 Q1315.3 25.0589 1315.3 31.5808 Q1315.3 38.1433 1318.5 41.9107 Q1321.74 45.678 1327.25 45.678 Z" fill="#000000" fill-rule="evenodd" fill-opacity="1" /><path clip-path="url(#clip340)" d="M 0 0 M1357.91 71.3202 L1357.91 63.8666 Q1360.99 65.3249 1364.15 66.0946 Q1367.31 66.8642 1370.35 66.8642 Q1378.45 66.8642 1382.7 61.436 Q1387 55.9673 1387.61 44.8678 Q1385.26 48.3516 1381.65 50.215 Q1378.05 52.0784 1373.67 52.0784 Q1364.6 52.0784 1359.29 46.6097 Q1354.02 41.1005 1354.02 31.5808 Q1354.02 22.2638 1359.53 16.633 Q1365.04 11.0023 1374.2 11.0023 Q1384.69 11.0023 1390.2 19.0636 Q1395.75 27.0843 1395.75 42.3968 Q1395.75 56.6965 1388.94 65.2439 Q1382.18 73.7508 1370.71 73.7508 Q1367.63 73.7508 1364.47 73.1431 Q1361.32 72.5355 1357.91 71.3202 M1374.2 45.678 Q1379.71 45.678 1382.91 41.9107 Q1386.15 38.1433 1386.15 31.5808 Q1386.15 25.0589 1382.91 21.2916 Q1379.71 17.4837 1374.2 17.4837 Q1368.69 17.4837 1365.45 21.2916 Q1362.25 25.0589 1362.25 31.5808 Q1362.25 38.1433 1365.45 41.9107 Q1368.69 45.678 1374.2 45.678 Z" fill="#000000" fill-rule="evenodd" fill-opacity="1" /><path clip-path="url(#clip340)" d="M 0 0 M1404.86 71.3202 L1404.86 63.8666 Q1407.94 65.3249 1411.1 66.0946 Q1414.26 66.8642 1417.3 66.8642 Q1425.4 66.8642 1429.65 61.436 Q1433.95 55.9673 1434.56 44.8678 Q1432.21 48.3516 1428.6 50.215 Q1425 52.0784 1420.62 52.0784 Q1411.55 52.0784 1406.24 46.6097 Q1400.97 41.1005 1400.97 31.5808 Q1400.97 22.2638 1406.48 16.633 Q1411.99 11.0023 1421.15 11.0023 Q1431.64 11.0023 1437.15 19.0636 Q1442.7 27.0843 1442.7 42.3968 Q1442.7 56.6965 1435.89 65.2439 Q1429.13 73.7508 1417.66 73.7508 Q1414.58 73.7508 1411.42 73.1431 Q1408.27 72.5355 1404.86 71.3202 M1421.15 45.678 Q1426.66 45.678 1429.86 41.9107 Q1433.1 38.1433 1433.1 31.5808 Q1433.1 25.0589 1429.86 21.2916 Q1426.66 17.4837 1421.15 17.4837 Q1415.64 17.4837 1412.4 21.2916 Q1409.2 25.0589 1409.2 31.5808 Q1409.2 38.1433 1412.4 41.9107 Q1415.64 45.678 1421.15 45.678 Z" fill="#000000" fill-rule="evenodd" fill-opacity="1" /><polyline clip-path="url(#clip342)" style="stroke:#009af9; stroke-width:4; stroke-opacity:1; fill:none" points="
  250.848,1424.03 265.724,819.584 280.6,700.794 295.475,639.563 310.351,584.065 325.227,529.302 340.102,487.506 354.978,537.771 369.854,480.053 384.729,475.545 
  399.605,463.225 414.481,490.88 429.356,448.905 444.232,384.42 459.108,409.01 473.983,407.368 488.859,355.074 503.735,441.272 518.61,444.138 533.486,446.178 
  548.362,388.988 563.237,423.828 578.113,403.925 592.989,399.138 607.864,420.086 622.74,361.721 637.616,415.916 652.491,315.159 667.367,460.011 682.243,364.259 
  697.118,407.109 711.994,326.593 726.87,315.925 741.745,360.039 756.621,249.858 771.497,274.318 786.372,331.439 801.248,438.168 816.124,319.527 830.999,378.589 
  845.875,360.019 860.751,358.159 875.626,337.45 890.502,277.881 905.378,272.149 920.253,263.023 935.129,337.101 950.005,287.066 964.88,281.234 979.756,180.556 
  994.632,338.604 1009.51,336.047 1024.38,292.071 1039.26,219.516 1054.13,280.349 1069.01,282.697 1083.89,291.156 1098.76,278.14 1113.64,343.57 1128.51,394.212 
  1143.39,423.31 1158.26,414.802 1173.14,423.668 1188.02,321.766 1202.89,385.047 1217.77,353.85 1232.64,340.415 1247.52,301.635 1262.39,289.405 1277.27,188.667 
  1292.15,405.736 1307.02,351.153 1321.9,332.643 1336.77,273.771 1351.65,241.618 1366.52,487.904 1381.4,369.991 1396.27,444.387 1411.15,491.805 1426.03,310.203 
  1440.9,482.829 1455.78,356.039 1470.65,267.442 1485.53,545.712 1500.4,500.244 1515.28,282.429 1530.16,398.183 1545.03,539.652 1559.91,477.933 1574.78,565.087 
  1589.66,352.148 1604.53,467.952 1619.41,427.082 1634.29,371.404 1649.16,480.103 1664.04,400.91 1678.91,385.286 1693.79,482.919 1708.66,415.628 1723.54,336.683 
  
  "/>
<polyline clip-path="url(#clip342)" style="stroke:#e26f46; stroke-width:4; stroke-opacity:1; fill:none" points="
  250.848,1447.87 265.724,870.644 280.6,739.485 295.475,714.169 310.351,636.389 325.227,647.047 340.102,570.172 354.978,565.645 369.854,514.942 384.729,465.992 
  399.605,492.024 414.481,423.738 429.356,494.263 444.232,431.49 459.108,437.74 473.983,427.012 488.859,380.738 503.735,435.899 518.61,380.957 533.486,362.935 
  548.362,402.074 563.237,444.696 578.113,433.719 592.989,349.212 607.864,373.056 622.74,318.99 637.616,328.712 652.491,279.931 667.367,317.209 682.243,325.359 
  697.118,324.871 711.994,301.068 726.87,399.208 741.745,412.991 756.621,326.324 771.497,341.271 786.372,366.01 801.248,251.51 816.124,385.584 830.999,288.618 
  845.875,184.945 860.751,335.877 875.626,314.502 890.502,284.498 905.378,339.788 920.253,271.631 935.129,280.249 950.005,414.652 964.88,241.24 979.756,348.267 
  994.632,282.618 1009.51,325.687 1024.38,315.686 1039.26,399.745 1054.13,403.696 1069.01,318.403 1083.89,329.926 1098.76,337.4 1113.64,396.76 1128.51,232.592 
  1143.39,313.467 1158.26,215.744 1173.14,279.433 1188.02,376.897 1202.89,354.556 1217.77,347.202 1232.64,193.643 1247.52,290.43 1262.39,352.128 1277.27,234.135 
  1292.15,328.026 1307.02,357.213 1321.9,256.515 1336.77,212.819 1351.65,237.677 1366.52,331.31 1381.4,301.535 1396.27,232.433 1411.15,441.143 1426.03,243.2 
  1440.9,407.866 1455.78,238.364 1470.65,298.888 1485.53,226.621 1500.4,326.623 1515.28,234.324 1530.16,162.047 1545.03,313.357 1559.91,308.929 1574.78,234.085 
  1589.66,308.073 1604.53,339.549 1619.41,416.424 1634.29,311.069 1649.16,300.212 1664.04,435.899 1678.91,453.871 1693.79,457.453 1708.66,459.762 1723.54,509.937 
  
  "/>
<polyline clip-path="url(#clip342)" style="stroke:#3da44d; stroke-width:4; stroke-opacity:1; fill:none" points="
  -1354.39,345.269 3328.77,345.269 
  "/>
<path clip-path="url(#clip340)" d="
M1839.26 1441.02 L2352.76 1441.02 L2352.76 1199.1 L1839.26 1199.1  Z
  " fill="#eaeaea" fill-rule="evenodd" fill-opacity="1"/>
<polyline clip-path="url(#clip340)" style="stroke:#ffffff; stroke-width:4; stroke-opacity:1; fill:none" points="
  1839.26,1441.02 2352.76,1441.02 2352.76,1199.1 1839.26,1199.1 1839.26,1441.02 
  "/>
<polyline clip-path="url(#clip340)" style="stroke:#009af9; stroke-width:4; stroke-opacity:1; fill:none" points="
  1863.1,1259.58 2006.17,1259.58 
  "/>
<path clip-path="url(#clip340)" d="M 0 0 M2030.02 1242.3 L2034.7 1242.3 L2034.7 1276.86 L2030.02 1276.86 L2030.02 1242.3 Z" fill="#000000" fill-rule="evenodd" fill-opacity="1" /><path clip-path="url(#clip340)" d="M 0 0 M2060.71 1261.21 L2060.71 1276.86 L2056.46 1276.86 L2056.46 1261.35 Q2056.46 1257.67 2055.02 1255.84 Q2053.58 1254.01 2050.71 1254.01 Q2047.27 1254.01 2045.27 1256.21 Q2043.28 1258.41 2043.28 1262.2 L2043.28 1276.86 L2039 1276.86 L2039 1250.93 L2043.28 1250.93 L2043.28 1254.96 Q2044.81 1252.62 2046.87 1251.46 Q2048.96 1250.3 2051.66 1250.3 Q2056.13 1250.3 2058.42 1253.08 Q2060.71 1255.84 2060.71 1261.21 Z" fill="#000000" fill-rule="evenodd" fill-opacity="1" /><path clip-path="url(#clip340)" d="M 0 0 M2069.3 1272.97 L2069.3 1286.72 L2065.02 1286.72 L2065.02 1250.93 L2069.3 1250.93 L2069.3 1254.86 Q2070.65 1252.55 2072.68 1251.44 Q2074.74 1250.3 2077.59 1250.3 Q2082.31 1250.3 2085.25 1254.05 Q2088.21 1257.8 2088.21 1263.92 Q2088.21 1270.03 2085.25 1273.78 Q2082.31 1277.53 2077.59 1277.53 Q2074.74 1277.53 2072.68 1276.42 Q2070.65 1275.28 2069.3 1272.97 M2083.79 1263.92 Q2083.79 1259.22 2081.85 1256.55 Q2079.93 1253.87 2076.55 1253.87 Q2073.17 1253.87 2071.22 1256.55 Q2069.3 1259.22 2069.3 1263.92 Q2069.3 1268.61 2071.22 1271.3 Q2073.17 1273.96 2076.55 1273.96 Q2079.93 1273.96 2081.85 1271.3 Q2083.79 1268.61 2083.79 1263.92 Z" fill="#000000" fill-rule="evenodd" fill-opacity="1" /><path clip-path="url(#clip340)" d="M 0 0 M2092.24 1266.62 L2092.24 1250.93 L2096.5 1250.93 L2096.5 1266.46 Q2096.5 1270.14 2097.94 1271.99 Q2099.37 1273.82 2102.24 1273.82 Q2105.69 1273.82 2107.68 1271.62 Q2109.7 1269.42 2109.7 1265.63 L2109.7 1250.93 L2113.95 1250.93 L2113.95 1276.86 L2109.7 1276.86 L2109.7 1272.87 Q2108.14 1275.23 2106.08 1276.39 Q2104.05 1277.53 2101.34 1277.53 Q2096.87 1277.53 2094.56 1274.75 Q2092.24 1271.97 2092.24 1266.62 M2102.96 1250.3 L2102.96 1250.3 Z" fill="#000000" fill-rule="evenodd" fill-opacity="1" /><path clip-path="url(#clip340)" d="M 0 0 M2122.64 1243.57 L2122.64 1250.93 L2131.41 1250.93 L2131.41 1254.24 L2122.64 1254.24 L2122.64 1268.31 Q2122.64 1271.49 2123.49 1272.39 Q2124.37 1273.29 2127.03 1273.29 L2131.41 1273.29 L2131.41 1276.86 L2127.03 1276.86 Q2122.1 1276.86 2120.23 1275.03 Q2118.35 1273.17 2118.35 1268.31 L2118.35 1254.24 L2115.23 1254.24 L2115.23 1250.93 L2118.35 1250.93 L2118.35 1243.57 L2122.64 1243.57 Z" fill="#000000" fill-rule="evenodd" fill-opacity="1" /><path clip-path="url(#clip340)" d="M 0 0 M2166.06 1264.8 L2165.04 1259.45 Q2164 1253.96 2159.88 1253.96 Q2156.78 1253.96 2155.37 1256.51 Q2153.58 1259.7 2153.58 1263.92 Q2153.58 1269.01 2155.32 1271.44 Q2157.08 1273.92 2159.88 1273.92 Q2162.98 1273.92 2164.65 1268.99 L2166.06 1264.8 M2168.45 1257.71 L2170.74 1250.93 L2174.53 1250.93 L2169.79 1264.98 L2170.71 1270.05 Q2170.92 1271.18 2171.73 1272.13 Q2172.68 1273.24 2173.42 1273.24 L2175.46 1273.24 L2175.46 1276.86 L2172.91 1276.86 Q2170.74 1276.86 2168.79 1274.91 Q2167.84 1273.94 2167.45 1271.9 Q2166.39 1274.47 2164.21 1276.48 Q2163.19 1277.43 2159.88 1277.43 Q2154.44 1277.43 2151.8 1273.92 Q2149.09 1270.28 2149.09 1263.92 Q2149.09 1257.11 2152.03 1253.92 Q2155.3 1250.35 2159.88 1250.35 Q2167.08 1250.35 2168.45 1257.71 Z" fill="#000000" fill-rule="evenodd" fill-opacity="1" /><path clip-path="url(#clip340)" d="M 0 0 M2190.16 1240.88 Q2187.06 1246.21 2185.55 1251.42 Q2184.05 1256.62 2184.05 1261.97 Q2184.05 1267.32 2185.55 1272.57 Q2187.08 1277.8 2190.16 1283.11 L2186.45 1283.11 Q2182.98 1277.67 2181.25 1272.41 Q2179.53 1267.16 2179.53 1261.97 Q2179.53 1256.81 2181.25 1251.58 Q2182.96 1246.35 2186.45 1240.88 L2190.16 1240.88 Z" fill="#000000" fill-rule="evenodd" fill-opacity="1" /><path clip-path="url(#clip340)" d="M 0 0 M2216.18 1250.93 L2206.8 1263.55 L2216.66 1276.86 L2211.64 1276.86 L2204.09 1266.67 L2196.55 1276.86 L2191.52 1276.86 L2201.59 1263.29 L2192.38 1250.93 L2197.4 1250.93 L2204.28 1260.17 L2211.15 1250.93 L2216.18 1250.93 Z" fill="#000000" fill-rule="evenodd" fill-opacity="1" /><path clip-path="url(#clip340)" d="M 0 0 M2220.46 1240.88 L2224.16 1240.88 Q2227.63 1246.35 2229.35 1251.58 Q2231.08 1256.81 2231.08 1261.97 Q2231.08 1267.16 2229.35 1272.41 Q2227.63 1277.67 2224.16 1283.11 L2220.46 1283.11 Q2223.54 1277.8 2225.04 1272.57 Q2226.57 1267.32 2226.57 1261.97 Q2226.57 1256.62 2225.04 1251.42 Q2223.54 1246.21 2220.46 1240.88 Z" fill="#000000" fill-rule="evenodd" fill-opacity="1" /><polyline clip-path="url(#clip340)" style="stroke:#e26f46; stroke-width:4; stroke-opacity:1; fill:none" points="
  1863.1,1320.06 2006.17,1320.06 
  "/>
<path clip-path="url(#clip340)" d="M 0 0 M2048.45 1312.17 L2048.45 1316.2 Q2046.64 1315.28 2044.7 1314.81 Q2042.75 1314.35 2040.67 1314.35 Q2037.5 1314.35 2035.9 1315.32 Q2034.33 1316.29 2034.33 1318.24 Q2034.33 1319.72 2035.46 1320.58 Q2036.59 1321.41 2040.02 1322.17 L2041.48 1322.5 Q2046.02 1323.47 2047.91 1325.25 Q2049.83 1327.01 2049.83 1330.18 Q2049.83 1333.79 2046.96 1335.9 Q2044.12 1338.01 2039.12 1338.01 Q2037.03 1338.01 2034.77 1337.59 Q2032.52 1337.2 2030.02 1336.39 L2030.02 1331.99 Q2032.38 1333.22 2034.67 1333.84 Q2036.96 1334.44 2039.21 1334.44 Q2042.22 1334.44 2043.84 1333.42 Q2045.46 1332.38 2045.46 1330.51 Q2045.46 1328.77 2044.28 1327.84 Q2043.12 1326.92 2039.16 1326.06 L2037.68 1325.72 Q2033.72 1324.88 2031.96 1323.17 Q2030.21 1321.43 2030.21 1318.42 Q2030.21 1314.77 2032.8 1312.78 Q2035.39 1310.78 2040.16 1310.78 Q2042.52 1310.78 2044.6 1311.13 Q2046.69 1311.48 2048.45 1312.17 Z" fill="#000000" fill-rule="evenodd" fill-opacity="1" /><path clip-path="url(#clip340)" d="M 0 0 M2066.08 1324.3 Q2060.92 1324.3 2058.93 1325.48 Q2056.94 1326.66 2056.94 1329.51 Q2056.94 1331.78 2058.42 1333.12 Q2059.93 1334.44 2062.5 1334.44 Q2066.04 1334.44 2068.17 1331.94 Q2070.32 1329.42 2070.32 1325.25 L2070.32 1324.3 L2066.08 1324.3 M2074.58 1322.54 L2074.58 1337.34 L2070.32 1337.34 L2070.32 1333.4 Q2068.86 1335.76 2066.69 1336.9 Q2064.51 1338.01 2061.36 1338.01 Q2057.38 1338.01 2055.02 1335.78 Q2052.68 1333.54 2052.68 1329.79 Q2052.68 1325.41 2055.6 1323.19 Q2058.54 1320.97 2064.35 1320.97 L2070.32 1320.97 L2070.32 1320.55 Q2070.32 1317.61 2068.38 1316.02 Q2066.46 1314.4 2062.96 1314.4 Q2060.74 1314.4 2058.63 1314.93 Q2056.52 1315.46 2054.58 1316.53 L2054.58 1312.59 Q2056.92 1311.69 2059.12 1311.25 Q2061.32 1310.78 2063.4 1310.78 Q2069.02 1310.78 2071.8 1313.7 Q2074.58 1316.62 2074.58 1322.54 Z" fill="#000000" fill-rule="evenodd" fill-opacity="1" /><path clip-path="url(#clip340)" d="M 0 0 M2099.23 1316.39 Q2100.83 1313.52 2103.05 1312.15 Q2105.27 1310.78 2108.28 1310.78 Q2112.33 1310.78 2114.53 1313.63 Q2116.73 1316.46 2116.73 1321.69 L2116.73 1337.34 L2112.45 1337.34 L2112.45 1321.83 Q2112.45 1318.1 2111.13 1316.29 Q2109.81 1314.49 2107.1 1314.49 Q2103.79 1314.49 2101.87 1316.69 Q2099.95 1318.89 2099.95 1322.68 L2099.95 1337.34 L2095.67 1337.34 L2095.67 1321.83 Q2095.67 1318.08 2094.35 1316.29 Q2093.03 1314.49 2090.27 1314.49 Q2087.01 1314.49 2085.09 1316.71 Q2083.17 1318.91 2083.17 1322.68 L2083.17 1337.34 L2078.89 1337.34 L2078.89 1311.41 L2083.17 1311.41 L2083.17 1315.44 Q2084.63 1313.05 2086.66 1311.92 Q2088.7 1310.78 2091.5 1310.78 Q2094.33 1310.78 2096.29 1312.22 Q2098.28 1313.65 2099.23 1316.39 Z" fill="#000000" fill-rule="evenodd" fill-opacity="1" /><path clip-path="url(#clip340)" d="M 0 0 M2125.32 1333.45 L2125.32 1347.2 L2121.04 1347.2 L2121.04 1311.41 L2125.32 1311.41 L2125.32 1315.34 Q2126.66 1313.03 2128.7 1311.92 Q2130.76 1310.78 2133.61 1310.78 Q2138.33 1310.78 2141.27 1314.53 Q2144.23 1318.28 2144.23 1324.4 Q2144.23 1330.51 2141.27 1334.26 Q2138.33 1338.01 2133.61 1338.01 Q2130.76 1338.01 2128.7 1336.9 Q2126.66 1335.76 2125.32 1333.45 M2139.81 1324.4 Q2139.81 1319.7 2137.87 1317.03 Q2135.95 1314.35 2132.57 1314.35 Q2129.19 1314.35 2127.24 1317.03 Q2125.32 1319.7 2125.32 1324.4 Q2125.32 1329.09 2127.24 1331.78 Q2129.19 1334.44 2132.57 1334.44 Q2135.95 1334.44 2137.87 1331.78 Q2139.81 1329.09 2139.81 1324.4 Z" fill="#000000" fill-rule="evenodd" fill-opacity="1" /><path clip-path="url(#clip340)" d="M 0 0 M2148.7 1301.32 L2152.96 1301.32 L2152.96 1337.34 L2148.7 1337.34 L2148.7 1301.32 Z" fill="#000000" fill-rule="evenodd" fill-opacity="1" /><path clip-path="url(#clip340)" d="M 0 0 M2179.6 1323.31 L2179.6 1325.39 L2160.02 1325.39 Q2160.3 1329.79 2162.66 1332.1 Q2165.04 1334.4 2169.28 1334.4 Q2171.73 1334.4 2174.02 1333.79 Q2176.34 1333.19 2178.61 1331.99 L2178.61 1336.02 Q2176.32 1336.99 2173.91 1337.5 Q2171.5 1338.01 2169.02 1338.01 Q2162.82 1338.01 2159.19 1334.4 Q2155.58 1330.78 2155.58 1324.63 Q2155.58 1318.26 2159 1314.53 Q2162.45 1310.78 2168.28 1310.78 Q2173.51 1310.78 2176.55 1314.16 Q2179.6 1317.52 2179.6 1323.31 M2175.34 1322.06 Q2175.3 1318.56 2173.38 1316.48 Q2171.48 1314.4 2168.33 1314.4 Q2164.76 1314.4 2162.61 1316.41 Q2160.48 1318.42 2160.16 1322.08 L2175.34 1322.06 Z" fill="#000000" fill-rule="evenodd" fill-opacity="1" /><path clip-path="url(#clip340)" d="M 0 0 M2201.13 1315.34 L2201.13 1301.32 L2205.39 1301.32 L2205.39 1337.34 L2201.13 1337.34 L2201.13 1333.45 Q2199.79 1335.76 2197.73 1336.9 Q2195.69 1338.01 2192.82 1338.01 Q2188.12 1338.01 2185.16 1334.26 Q2182.22 1330.51 2182.22 1324.4 Q2182.22 1318.28 2185.16 1314.53 Q2188.12 1310.78 2192.82 1310.78 Q2195.69 1310.78 2197.73 1311.92 Q2199.79 1313.03 2201.13 1315.34 M2186.62 1324.4 Q2186.62 1329.09 2188.54 1331.78 Q2190.48 1334.44 2193.86 1334.44 Q2197.24 1334.44 2199.19 1331.78 Q2201.13 1329.09 2201.13 1324.4 Q2201.13 1319.7 2199.19 1317.03 Q2197.24 1314.35 2193.86 1314.35 Q2190.48 1314.35 2188.54 1317.03 Q2186.62 1319.7 2186.62 1324.4 Z" fill="#000000" fill-rule="evenodd" fill-opacity="1" /><path clip-path="url(#clip340)" d="M 0 0 M2240.04 1325.28 L2239.02 1319.93 Q2237.98 1314.44 2233.86 1314.44 Q2230.76 1314.44 2229.35 1316.99 Q2227.57 1320.18 2227.57 1324.4 Q2227.57 1329.49 2229.3 1331.92 Q2231.06 1334.4 2233.86 1334.4 Q2236.96 1334.4 2238.63 1329.47 L2240.04 1325.28 M2242.43 1318.19 L2244.72 1311.41 L2248.51 1311.41 L2243.77 1325.46 L2244.7 1330.53 Q2244.9 1331.66 2245.71 1332.61 Q2246.66 1333.72 2247.4 1333.72 L2249.44 1333.72 L2249.44 1337.34 L2246.89 1337.34 Q2244.72 1337.34 2242.77 1335.39 Q2241.82 1334.42 2241.43 1332.38 Q2240.37 1334.95 2238.19 1336.96 Q2237.17 1337.91 2233.86 1337.91 Q2228.42 1337.91 2225.78 1334.4 Q2223.07 1330.76 2223.07 1324.4 Q2223.07 1317.59 2226.01 1314.4 Q2229.28 1310.83 2233.86 1310.83 Q2241.06 1310.83 2242.43 1318.19 Z" fill="#000000" fill-rule="evenodd" fill-opacity="1" /><path clip-path="url(#clip340)" d="M 0 0 M2264.14 1301.36 Q2261.04 1306.69 2259.53 1311.9 Q2258.03 1317.1 2258.03 1322.45 Q2258.03 1327.8 2259.53 1333.05 Q2261.06 1338.28 2264.14 1343.59 L2260.44 1343.59 Q2256.96 1338.15 2255.23 1332.89 Q2253.51 1327.64 2253.51 1322.45 Q2253.51 1317.29 2255.23 1312.06 Q2256.94 1306.83 2260.44 1301.36 L2264.14 1301.36 Z" fill="#000000" fill-rule="evenodd" fill-opacity="1" /><path clip-path="url(#clip340)" d="M 0 0 M2290.16 1311.41 L2280.78 1324.03 L2290.64 1337.34 L2285.62 1337.34 L2278.07 1327.15 L2270.53 1337.34 L2265.51 1337.34 L2275.57 1323.77 L2266.36 1311.41 L2271.38 1311.41 L2278.26 1320.65 L2285.13 1311.41 L2290.16 1311.41 Z" fill="#000000" fill-rule="evenodd" fill-opacity="1" /><path clip-path="url(#clip340)" d="M 0 0 M2294.44 1301.36 L2298.14 1301.36 Q2301.62 1306.83 2303.33 1312.06 Q2305.07 1317.29 2305.07 1322.45 Q2305.07 1327.64 2303.33 1332.89 Q2301.62 1338.15 2298.14 1343.59 L2294.44 1343.59 Q2297.52 1338.28 2299.02 1333.05 Q2300.55 1327.8 2300.55 1322.45 Q2300.55 1317.1 2299.02 1311.9 Q2297.52 1306.69 2294.44 1301.36 Z" fill="#000000" fill-rule="evenodd" fill-opacity="1" /><polyline clip-path="url(#clip340)" style="stroke:#3da44d; stroke-width:4; stroke-opacity:1; fill:none" points="
  1863.1,1380.54 2006.17,1380.54 
  "/>
<path clip-path="url(#clip340)" d="M 0 0 M2045.85 1367.86 L2039.51 1385.06 L2052.22 1385.06 L2045.85 1367.86 M2043.21 1363.26 L2048.52 1363.26 L2061.69 1397.82 L2056.83 1397.82 L2053.68 1388.95 L2038.1 1388.95 L2034.95 1397.82 L2030.02 1397.82 L2043.21 1363.26 Z" fill="#000000" fill-rule="evenodd" fill-opacity="1" /><path clip-path="url(#clip340)" d="M 0 0 M2082.68 1372.65 L2082.68 1376.68 Q2080.88 1375.76 2078.93 1375.29 Q2076.99 1374.83 2074.9 1374.83 Q2071.73 1374.83 2070.14 1375.8 Q2068.56 1376.77 2068.56 1378.72 Q2068.56 1380.2 2069.7 1381.06 Q2070.83 1381.89 2074.26 1382.65 L2075.71 1382.98 Q2080.25 1383.95 2082.15 1385.73 Q2084.07 1387.49 2084.07 1390.66 Q2084.07 1394.27 2081.2 1396.38 Q2078.35 1398.49 2073.35 1398.49 Q2071.27 1398.49 2069 1398.07 Q2066.76 1397.68 2064.26 1396.87 L2064.26 1392.47 Q2066.62 1393.7 2068.91 1394.32 Q2071.2 1394.92 2073.45 1394.92 Q2076.46 1394.92 2078.08 1393.9 Q2079.7 1392.86 2079.7 1390.99 Q2079.7 1389.25 2078.52 1388.32 Q2077.36 1387.4 2073.4 1386.54 L2071.92 1386.2 Q2067.96 1385.36 2066.2 1383.65 Q2064.44 1381.91 2064.44 1378.9 Q2064.44 1375.25 2067.03 1373.26 Q2069.63 1371.26 2074.39 1371.26 Q2076.76 1371.26 2078.84 1371.61 Q2080.92 1371.96 2082.68 1372.65 Z" fill="#000000" fill-rule="evenodd" fill-opacity="1" /><path clip-path="url(#clip340)" d="M 0 0 M2099.33 1400.22 Q2097.52 1404.85 2095.81 1406.26 Q2094.09 1407.68 2091.22 1407.68 L2087.82 1407.68 L2087.82 1404.11 L2090.32 1404.11 Q2092.08 1404.11 2093.05 1403.28 Q2094.02 1402.44 2095.21 1399.34 L2095.97 1397.4 L2085.48 1371.89 L2090 1371.89 L2098.1 1392.17 L2106.2 1371.89 L2110.71 1371.89 L2099.33 1400.22 Z" fill="#000000" fill-rule="evenodd" fill-opacity="1" /><path clip-path="url(#clip340)" d="M 0 0 M2135.37 1376.87 Q2136.96 1374 2139.19 1372.63 Q2141.41 1371.26 2144.42 1371.26 Q2148.47 1371.26 2150.67 1374.11 Q2152.87 1376.94 2152.87 1382.17 L2152.87 1397.82 L2148.58 1397.82 L2148.58 1382.31 Q2148.58 1378.58 2147.26 1376.77 Q2145.95 1374.97 2143.24 1374.97 Q2139.93 1374.97 2138.01 1377.17 Q2136.08 1379.37 2136.08 1383.16 L2136.08 1397.82 L2131.8 1397.82 L2131.8 1382.31 Q2131.8 1378.56 2130.48 1376.77 Q2129.16 1374.97 2126.41 1374.97 Q2123.14 1374.97 2121.22 1377.19 Q2119.3 1379.39 2119.3 1383.16 L2119.3 1397.82 L2115.02 1397.82 L2115.02 1371.89 L2119.3 1371.89 L2119.3 1375.92 Q2120.76 1373.53 2122.8 1372.4 Q2124.83 1371.26 2127.64 1371.26 Q2130.46 1371.26 2132.43 1372.7 Q2134.42 1374.13 2135.37 1376.87 Z" fill="#000000" fill-rule="evenodd" fill-opacity="1" /><path clip-path="url(#clip340)" d="M 0 0 M2161.45 1393.93 L2161.45 1407.68 L2157.17 1407.68 L2157.17 1371.89 L2161.45 1371.89 L2161.45 1375.82 Q2162.8 1373.51 2164.83 1372.4 Q2166.89 1371.26 2169.74 1371.26 Q2174.46 1371.26 2177.4 1375.01 Q2180.37 1378.76 2180.37 1384.88 Q2180.37 1390.99 2177.4 1394.74 Q2174.46 1398.49 2169.74 1398.49 Q2166.89 1398.49 2164.83 1397.38 Q2162.8 1396.24 2161.45 1393.93 M2175.95 1384.88 Q2175.95 1380.18 2174 1377.51 Q2172.08 1374.83 2168.7 1374.83 Q2165.32 1374.83 2163.38 1377.51 Q2161.45 1380.18 2161.45 1384.88 Q2161.45 1389.57 2163.38 1392.26 Q2165.32 1394.92 2168.7 1394.92 Q2172.08 1394.92 2174 1392.26 Q2175.95 1389.57 2175.95 1384.88 Z" fill="#000000" fill-rule="evenodd" fill-opacity="1" /><path clip-path="url(#clip340)" d="M 0 0 M2189.05 1364.53 L2189.05 1371.89 L2197.82 1371.89 L2197.82 1375.2 L2189.05 1375.2 L2189.05 1389.27 Q2189.05 1392.45 2189.9 1393.35 Q2190.78 1394.25 2193.45 1394.25 L2197.82 1394.25 L2197.82 1397.82 L2193.45 1397.82 Q2188.51 1397.82 2186.64 1395.99 Q2184.76 1394.13 2184.76 1389.27 L2184.76 1375.2 L2181.64 1375.2 L2181.64 1371.89 L2184.76 1371.89 L2184.76 1364.53 L2189.05 1364.53 Z" fill="#000000" fill-rule="evenodd" fill-opacity="1" /><path clip-path="url(#clip340)" d="M 0 0 M2212.33 1374.88 Q2208.91 1374.88 2206.92 1377.56 Q2204.93 1380.22 2204.93 1384.88 Q2204.93 1389.53 2206.89 1392.21 Q2208.89 1394.88 2212.33 1394.88 Q2215.74 1394.88 2217.73 1392.19 Q2219.72 1389.51 2219.72 1384.88 Q2219.72 1380.27 2217.73 1377.58 Q2215.74 1374.88 2212.33 1374.88 M2212.33 1371.26 Q2217.89 1371.26 2221.06 1374.88 Q2224.23 1378.49 2224.23 1384.88 Q2224.23 1391.24 2221.06 1394.88 Q2217.89 1398.49 2212.33 1398.49 Q2206.76 1398.49 2203.58 1394.88 Q2200.44 1391.24 2200.44 1384.88 Q2200.44 1378.49 2203.58 1374.88 Q2206.76 1371.26 2212.33 1371.26 Z" fill="#000000" fill-rule="evenodd" fill-opacity="1" /><path clip-path="url(#clip340)" d="M 0 0 M2232.91 1364.53 L2232.91 1371.89 L2241.69 1371.89 L2241.69 1375.2 L2232.91 1375.2 L2232.91 1389.27 Q2232.91 1392.45 2233.77 1393.35 Q2234.65 1394.25 2237.31 1394.25 L2241.69 1394.25 L2241.69 1397.82 L2237.31 1397.82 Q2232.38 1397.82 2230.51 1395.99 Q2228.63 1394.13 2228.63 1389.27 L2228.63 1375.2 L2225.51 1375.2 L2225.51 1371.89 L2228.63 1371.89 L2228.63 1364.53 L2232.91 1364.53 Z" fill="#000000" fill-rule="evenodd" fill-opacity="1" /><path clip-path="url(#clip340)" d="M 0 0 M2246.15 1371.89 L2250.41 1371.89 L2250.41 1397.82 L2246.15 1397.82 L2246.15 1371.89 M2246.15 1361.8 L2250.41 1361.8 L2250.41 1367.19 L2246.15 1367.19 L2246.15 1361.8 Z" fill="#000000" fill-rule="evenodd" fill-opacity="1" /><path clip-path="url(#clip340)" d="M 0 0 M2273.54 1372.88 L2273.54 1376.87 Q2271.73 1375.87 2269.9 1375.38 Q2268.1 1374.88 2266.25 1374.88 Q2262.1 1374.88 2259.81 1377.51 Q2257.52 1380.13 2257.52 1384.88 Q2257.52 1389.62 2259.81 1392.26 Q2262.1 1394.88 2266.25 1394.88 Q2268.1 1394.88 2269.9 1394.39 Q2271.73 1393.88 2273.54 1392.88 L2273.54 1396.82 Q2271.76 1397.65 2269.83 1398.07 Q2267.94 1398.49 2265.78 1398.49 Q2259.93 1398.49 2256.48 1394.81 Q2253.03 1391.13 2253.03 1384.88 Q2253.03 1378.53 2256.5 1374.9 Q2260 1371.26 2266.06 1371.26 Q2268.03 1371.26 2269.9 1371.68 Q2271.78 1372.07 2273.54 1372.88 Z" fill="#000000" fill-rule="evenodd" fill-opacity="1" /></svg>
